/* XPM */
static char * charac_xpm[] = {
"17 21 23 1",
" 	c None",
".	c #000000",
"+	c #00A1BA",
"@	c #FFFFFF",
"#	c #FFBF1B",
"$	c #FFE51B",
"%	c #0C6FA6",
"&	c #EC9E19",
"*	c #E2A174",
"=	c #F1B983",
"-	c #CD7916",
";	c #FFDEA6",
">	c #285C55",
",	c #CC4402",
"'	c #223630",
")	c #E36002",
"!	c #5C3B20",
"~	c #B71C02",
"{	c #DB9451",
"]	c #D6A503",
"^	c #341B03",
"/	c #4F2E02",
"(	c #805503",
"      .....      ",
"     .++@@+..    ",
"    .+++#$$$$.   ",
"    .+%#$$##$$.  ",
"   .%%#######$.  ",
"  .$%%&*===*##.  ",
" .$$#%&@.==.&.   ",
" .&##&-@.;;.-&.  ",
"  .&&--=;;;=-.   ",
"   .->,,===,>.   ",
"   .'',)>>>)'>.  ",
"  .>''))!'))''>. ",
" .'''.,))))~.{==.",
".=;=..'~~~~'..{{.",
".;;..~~']]-~,... ",
" .. .~~~~~~~~'.  ",
"    .'~~~~~~'.   ",
"    .'''...^^.   ",
"   .///.   .^/.  ",
"   .((.     ...  ",
"   ....          "};
