/* XPM */
static char * charac_xpm[] = {
"16 29 6 1",
" 	c None",
".	c #3A0911",
"+	c #811426",
"@	c #A11B31",
"#	c #000000",
"$	c #FFFFFF",
"    .......     ",
"   .+@@@@@@.    ",
"  .+@@@....@.   ",
" .+@@@.####.@.  ",
" .+@@.######.@. ",
".++@@.######.@. ",
".+++@.#$###$.@. ",
".+.+@.#$###$.@. ",
".+.+@.######.+. ",
" ..++@.#####.+. ",
"   .+++.###.+.  ",
"    ..++...+.   ",
"   .+++@@@@@+.  ",
"  .+@@@@@@@@@+. ",
"  .+@@@@@@@@@+. ",
"  .@@@@@@@@@@@. ",
" .+@@@@@@@@@@@. ",
" .+@@@@@@+@@@@+.",
" .+@@@@@@+@@@@+.",
" .+@@@@@+.+@@++.",
".+++@+@++.++@++.",
".++++@++.#.++++.",
".+.++++.##.++.+.",
" ..+.++.###.++. ",
"  .. ...  #...  ",
"     ##    #    ",
"      #    #    ",
"      #    #    ",
"                "};
