/* XPM */
static char * charac_bot_dirt_left_xpm[] = {
"48 48 22 1",
" 	c #211516",
".	c #522927",
"+	c #000000",
"@	c #703E27",
"#	c #00A1BA",
"$	c #FFFFFF",
"%	c #FFE51B",
"&	c #FFBF1B",
"*	c #0C6FA6",
"=	c #E2A174",
"-	c #F1B983",
";	c #EC9E19",
">	c #CD7916",
",	c #FFDEA6",
"'	c #285C55",
")	c #CC4402",
"!	c #223630",
"~	c #E36002",
"{	c #5C3B20",
"]	c #DB9451",
"^	c #B71C02",
"/	c #D6A503",
"  ......++      @@@@..      ++......    ....  ++",
"  ......++      @@@@..      ++......    ....  ++",
"++++  ..  ++++    ++++                  ++++++++",
"++++  ..  ++++    ++++                  ++++++++",
"@@..++++++  @@@@....  ++......    ++....@@@@..@@",
"@@..++++++  @@@@....  ++......    ++....@@@@..@@",
"@@    @@@@......@@@@..    ..    ++      ......  ",
"@@    @@@@......@@@@..    ..    ++      ......  ",
"    ................          @@@@....++  ....  ",
"    ................          @@@@....++  ....  ",
"  ....      ......  ++      ....@@@@@@..++++++  ",
"  ....      ......  ++      ....@@@@@@..++++++  ",
"++      ++++    ++++  ++  ..............@@    ++",
"++      ++++    ++++  ++  ..............@@    ++",
"..  @@@@......@@@@@@..        ..............  ++",
"..  @@@@......@@@@@@..        ..............  ++",
"  .................++++++++++           ++++++  ",
"  .................++++++++++           ++++++  ",
"++      ++    .++++##$$$$####++                 ",
"++      ++    .++++##$$$$####++                 ",
"      @@@@  +++%%%%%%%%&&######++@....    ++  ..",
"      @@@@  +++%%%%%%%%&&######++@....    ++  ..",
"..  ......@++%%%%&&&&%%%%&&**##++...        ++++",
"..  ......@++%%%%&&&&%%%%&&**##++...        ++++",
"..    ..@@@++%%&&&&&&&&&&&&&&****++   ......  ..",
"..    ..@@@++%%&&&&&&&&&&&&&&****++   ......  ..",
"        ...++&&&&==------==;;****%%++ ....      ",
"        ...++&&&&==------==;;****%%++ ....      ",
"             ++;;++----++$$;;**&&%%%%++@@@..  ++",
"             ++;;++----++$$;;**&&%%%%++@@@..  ++",
"++  ++++++ ++;;>>++,,,,++$$>>;;&&&&;;++.@@@@..  ",
"++  ++++++ ++;;>>++,,,,++$$>>;;&&&&;;++.@@@@..  ",
"  ++++..@@@@ ++>>--,,,,,,-->>>>;;;;++     ......",
"  ++++..@@@@ ++>>--,,,,,,-->>>>;;;;++     ......",
"  ++........@++''))------))))''>>++@..@@..      ",
"  ++........@++''))------))))''>>++@..@@..      ",
"      @@@@.++''!!~~''''''~~))!!!!++...  ++++++  ",
"      @@@@.++''!!~~''''''~~))!!!!++...  ++++++  ",
"++  @@@@.++''!!!!~~~~!!{{~~~~!!!!''+++++      ++",
"++  @@@@.++''!!!!~~~~!!{{~~~~!!!!''+++++      ++",
"....   ++----]]++^^~~~~~~~~))++!!!!!!++ ........",
"....   ++----]]++^^~~~~~~~~))++!!!!!!++ ........",
"..     ++]]]]++++!!^^^^^^^^!!++++--,,--+++++++..",
"..     ++]]]]++++!!^^^^^^^^!!++++--,,--+++++++..",
"++++++...++++++))^^>>////!!^^^^++++,,,,++.@@  ..",
"++++++...++++++))^^>>////!!^^^^++++,,,,++.@@  ..",
".......... ++!!^^^^^^^^^^^^^^^^+++.++++.......  ",
".......... ++!!^^^^^^^^^^^^^^^^+++.++++.......  "};
