/* XPM */
static char * charac_bot_diamond_xpm[] = {
"48 48 331 2",
"  	c #211516",
". 	c #522927",
"+ 	c #512927",
"@ 	c #4F2725",
"# 	c #4A2523",
"$ 	c #000000",
"% 	c #0F0808",
"& 	c #080404",
"* 	c #040202",
"= 	c #010001",
"- 	c #223630",
"; 	c #B71C02",
"> 	c #26100F",
", 	c #321715",
"' 	c #170D0E",
") 	c #1B1011",
"! 	c #1D1213",
"~ 	c #1F1415",
"{ 	c #502826",
"] 	c #512826",
"^ 	c #4E2725",
"/ 	c #492422",
"( 	c #0D0707",
"_ 	c #070304",
": 	c #020101",
"< 	c #010000",
"[ 	c #230E0D",
"} 	c #301614",
"| 	c #160D0E",
"1 	c #1A1011",
"2 	c #1F1414",
"3 	c #201516",
"4 	c #482321",
"5 	c #180E0F",
"6 	c #130A0B",
"7 	c #341B03",
"8 	c #090405",
"9 	c #100809",
"0 	c #150C0D",
"a 	c #1A1010",
"b 	c #1F1314",
"c 	c #120A0B",
"d 	c #0A0505",
"e 	c #160D0D",
"f 	c #703E27",
"g 	c #0C0606",
"h 	c #060303",
"i 	c #4F2E02",
"j 	c #3C1C1B",
"k 	c #44211F",
"l 	c #6E3D26",
"m 	c #3E1E1C",
"n 	c #462220",
"o 	c #4B2523",
"p 	c #6F3D26",
"q 	c #6C3B25",
"r 	c #663823",
"s 	c #5C321F",
"t 	c #4F2A19",
"u 	c #2D1413",
"v 	c #200C0B",
"w 	c #805503",
"x 	c #180F0F",
"y 	c #1C1112",
"z 	c #1E1314",
"A 	c #201415",
"B 	c #6D3C26",
"C 	c #683924",
"D 	c #603420",
"E 	c #542D1B",
"F 	c #321716",
"G 	c #4D2624",
"H 	c #482322",
"I 	c #411F1E",
"J 	c #381A19",
"K 	c #010101",
"L 	c #1F0D06",
"M 	c #2B140A",
"N 	c #391D10",
"O 	c #452415",
"P 	c #3A1B1A",
"Q 	c #41201E",
"R 	c #4C2624",
"S 	c #452220",
"T 	c #3E1D1C",
"U 	c #361917",
"V 	c #030101",
"W 	c #2F170C",
"X 	c #3B1E11",
"Y 	c #401F1D",
"Z 	c #341817",
"` 	c #2C1312",
" .	c #240F0E",
"..	c #1D0B0A",
"+.	c #160707",
"@.	c #130605",
"#.	c #030102",
"$.	c #050202",
"%.	c #210D0C",
"&.	c #2D1412",
"*.	c #331716",
"=.	c #502A19",
"-.	c #582F1D",
";.	c #5F3420",
">.	c #653722",
",.	c #6A3B25",
"'.	c #3D1D1C",
").	c #371918",
"!.	c #2B1211",
"~.	c #0B0606",
"{.	c #0C0607",
"].	c #0E0708",
"^.	c #2E1513",
"/.	c #3D1D1B",
"(.	c #5A311E",
"_.	c #693A24",
":.	c #140B0C",
"<.	c #0F0809",
"[.	c #11090A",
"}.	c #361918",
"|.	c #391A19",
"1.	c #3B1C1A",
"2.	c #472321",
"3.	c #190F10",
"4.	c #43201F",
"5.	c #4A2423",
"6.	c #4C2524",
"7.	c #633621",
"8.	c #613521",
"9.	c #5E3320",
"0.	c #1B1112",
"a.	c #6B3B25",
"b.	c #673923",
"c.	c #4E2826",
"d.	c #6F3D27",
"e.	c #C2C2C2",
"f.	c #B5BFC2",
"g.	c #B6BFC2",
"h.	c #BAC0C3",
"i.	c #C9C4C3",
"j.	c #CAC4C3",
"k.	c #CAC5C3",
"l.	c #CBC5C3",
"m.	c #CCC5C3",
"n.	c #B8BFC2",
"o.	c #C7C3C2",
"p.	c #C8C4C2",
"q.	c #4D2725",
"r.	c #A9C3C3",
"s.	c #A8C2C2",
"t.	c #78C2C2",
"u.	c #77C2C2",
"v.	c #A9BBC2",
"w.	c #AABCC2",
"x.	c #ABBCC2",
"y.	c #C4C2C2",
"z.	c #B28BC2",
"A.	c #B38BC2",
"B.	c #BDAAC3",
"C.	c #BEAAC3",
"D.	c #C3C2C2",
"E.	c #4E2624",
"F.	c #4C2523",
"G.	c #C8C4C3",
"H.	c #A7C2C2",
"I.	c #76C2C2",
"J.	c #75C2C2",
"K.	c #A9BCC2",
"L.	c #B18BC2",
"M.	c #BCA9C2",
"N.	c #BDA9C2",
"O.	c #4E2625",
"P.	c #A5C2C2",
"Q.	c #B9A8C2",
"R.	c #AF8AC2",
"S.	c #B08AC2",
"T.	c #B08BC2",
"U.	c #C7C3C3",
"V.	c #74C2C2",
"W.	c #C6C3C3",
"X.	c #C5C3C3",
"Y.	c #73C2C2",
"Z.	c #91B5C2",
"`.	c #C8C3C3",
" +	c #C5C3C2",
".+	c #A6C2C2",
"++	c #BEA9C3",
"@+	c #C6C3C2",
"#+	c #C8C3C2",
"$+	c #C4B2C4",
"%+	c #80A1C2",
"&+	c #81A1C2",
"*+	c #528AC2",
"=+	c #548AC2",
"-+	c #6E3C26",
";+	c #508AC2",
">+	c #538AC2",
",+	c #6E3C25",
"'+	c #3B1C1C",
")+	c #462516",
"!+	c #321B0F",
"~+	c #4D89C2",
"{+	c #160B0C",
"]+	c #1D1314",
"^+	c #502725",
"/+	c #442220",
"(+	c #3B1C1B",
"_+	c #452416",
":+	c #311A0E",
"<+	c #160A0B",
"[+	c #502927",
"}+	c #442321",
"|+	c #3C1C1A",
"1+	c #23100F",
"2+	c #150606",
"3+	c #080202",
"4+	c #C29AC2",
"5+	c #28140A",
"6+	c #3E1F11",
"7+	c #3A1C1B",
"8+	c #452120",
"9+	c #452321",
"0+	c #3E1D1B",
"a+	c #341917",
"b+	c #170706",
"c+	c #090202",
"d+	c #29130B",
"e+	c #3F1F11",
"f+	c #3D1C1A",
"g+	c #201515",
"h+	c #623621",
"i+	c #582F1C",
"j+	c #4A2618",
"k+	c #381E11",
"l+	c #1B0807",
"m+	c #0C0404",
"n+	c #040201",
"o+	c #0F0504",
"p+	c #070404",
"q+	c #12090A",
"r+	c #643721",
"s+	c #5B301E",
"t+	c #4F2B19",
"u+	c #3D2113",
"v+	c #1F0908",
"w+	c #120505",
"x+	c #050101",
"y+	c #060202",
"z+	c #140605",
"A+	c #090606",
"B+	c #130A0A",
"C+	c #663724",
"D+	c #5E3220",
"E+	c #331615",
"F+	c #240C0C",
"G+	c #180707",
"H+	c #0A0302",
"I+	c #191010",
"J+	c #6C3C25",
"K+	c #613522",
"L+	c #421F1D",
"M+	c #371A18",
"N+	c #2B1313",
"O+	c #1B1314",
"P+	c #170E0E",
"Q+	c #120909",
"R+	c #070303",
"S+	c #030202",
"T+	c #020202",
"U+	c #170C0D",
"V+	c #190E0F",
"W+	c #492725",
"X+	c #140C0D",
"Y+	c #0A0404",
"Z+	c #060404",
"`+	c #1A1213",
" @	c #030303",
".@	c #060201",
"+@	c #110603",
"@@	c #1F0C07",
"#@	c #2F180C",
"$@	c #2C1413",
"%@	c #3A1D1D",
"&@	c #46201F",
"*@	c #492624",
"=@	c #0C0505",
"-@	c #140804",
";@	c #200C07",
">@	c #2F150C",
",@	c #402314",
"'@	c #3A1B19",
")@	c #441F1E",
"!@	c #482624",
"~@	c #4B2624",
"{@	c #432120",
"]@	c #3A1D1C",
"^@	c #321614",
"/@	c #291412",
"(@	c #050404",
"_@	c #040303",
":@	c #170908",
"<@	c #251010",
"[@	c #321817",
"}@	c #3B1B19",
"|@	c #43211F",
"1@	c #4F2625",
"2@	c #4F2826",
"3@	c #3B1F1F",
"4@	c #361717",
"5@	c #0F090A",
"6@	c #080506",
"7@	c #050303",
"8@	c #0B0404",
"9@	c #2C1414",
"0@	c #351917",
"a@	c #4A2624",
"b@	c #110809",
"c@	c #0B0707",
"d@	c #1B0C0A",
"e@	c #1A0909",
"f@	c #1B0707",
"g@	c #1B0908",
"h@	c #49211F",
"i@	c #151011",
"j@	c #150B0B",
"k@	c #150A0B",
"l@	c #2B1615",
"m@	c #2C1111",
"n@	c #2E1311",
"o@	c #0D0B0B",
"p@	c #130D0D",
"    . . . + @ # $ $ % & * = $ $ - - ; ; ; ; ; ; ; ; ; ; ; ; - - $ $ > , ' ) ! ~ { . . .     $ $ ",
"    . . . ] ^ / $ $ ( _ : < $ $ - - ; ; ; ; ; ; ; ; ; ; ; ; - - $ $ [ } | 1 ! 2 { . . .     $ $ ",
"$ $ $ $   3 ^ 4 5 6 $ $ $ $ $ $ - - - - - - $ $ $ $ $ $ 7 7 7 7 $ $ 8 9 0 a ! b $ $ $ $ $ $ $ $ ",
"$ $ $ $   3 ^ 4 5 c $ $ $ $ $ $ - - - - - - $ $ $ $ $ $ 7 7 7 7 $ $ d 9 e 1 ! ~ $ $ $ $ $ $ $ $ ",
"f f . . $ $ $ $ $ $ g h $ $ i i i i i i $ $ $ $ $ $ $ $ $ $ 7 7 i i $ $ j k # ^ l f f f . . f f ",
"f f . . $ $ $ $ $ $ ( _ $ $ i i i i i i $ $ $ $ $ $ $ $ $ $ 7 7 i i $ $ m n o @ p f f f . . f f ",
"f f         q r s t u v $ $ w w w w $ $ $ $ $ $ $ $ $ $ $ $ $ $ $ $ $ $ x y z A + . . . . .     ",
"f f         B C D E F > $ $ w w w w $ $ $ $ $ $ $ $ $ < $ < $ $ $ $ $ $ 1 ! 2 3 . . . . . .     ",
"        . + { G H I J u $ $ $ $ $ $ $ $ $ $ $ $ $ $ < < K : L M N O P Q 4 R $ $     . . . .     ",
"        . . ] @ o S T U $ $ $ $ $ $ $ $ < = = K K : : V * h W X O t Y n o ^ $ $     . . . .     ",
"    . . . .   A b ! a ' Z `  ...+.@.#.V $ $ * * * $.h _ %.> &.*.=.-.;.>.,.B + . $ $ $ $ $ $     ",
"    . . . .   3 A z y a '.).} !.> %.& & $ $ 8 d d ~.{.].^.*.J /.(.D >._.B p . . $ $ $ $ $ $     ",
"$ $             $ $ $ $ 1 5 e :.$ $ $ $ <.9 $ $ [.6 }.|.1.T I k 2.o G { ] . . . f f         $ $ ",
"$ $             $ $ $ $ ! y 1 3.$ $ $ $ e | $ $ 5 x Q 4.k n 4 5.R ^ { ] . . . . f f         $ $ ",
". .     f f f f . + ] @ ^ 6.r 7.8.D 9.;.S n 0.y y y ! ! ! z G ^ @ { + . . . . . . . . .     $ $ ",
". .     f f f f . . . ] { @ a._.C C b.C 6.R b b b 2 b 2 ~ A { { ] . . . . . . . . . . .     $ $ ",
"    . . . . . . . . . . . + ] { { c.^ @ { { A A A A A A A                       $ $ $ $ $ $     ",
"    . . . . . . . . . . . + ] ] { { { { { ]                                     $ $ $ $ $ $     ",
"$ $             $ $     3 A { { $ $ $ $ $ $ $ $ $ $ $ $ $ $ $ $ $ $                             ",
"$ $             $ $ 3 A A A @ ^ $ $ $ $ $ $ $ $ $ $ $ $ $ $ $ $ $ $                             ",
"            f f d.l A A $ $ $ $ e.e.e.e.e.e.f.f.g.g.h.h.i.i.j.k.l.m.$ $ $ $         $ $     . . ",
"            f d.l B ~ b $ $ $ $ e.e.e.e.e.e.f.f.g.g.n.n.o.o.p.p.i.j.$ $ $ $         $ $     . . ",
". .     . . + ] { q.$ $ j.i.r.s.t.u.e.e.v.v.w.w.x.x.x.x.w.w.y.y.z.A.B.C.D.D.$ $         $ $ $ $ ",
". .     . . ] { E.F.$ $ G.o.H.H.I.J.e.e.v.v.K.K.w.w.w.w.K.w.e.D.L.L.M.N.D.D.$ $         $ $ $ $ ",
". .         { O.$ $ i.G.t.u.I.J.P.P.e.e.e.e.e.e.e.e.e.e.e.e.e.e.Q.Q.R.S.T.T.U.U.$ $ . .     . . ",
". .       3 @ R $ $ G.o.u.J.J.V.P.P.e.e.e.e.e.e.e.e.e.e.e.e.e.e.Q.Q.R.R.S.T.W.U.$ $ . .     . . ",
"          A $ $ W.X.s.H.Y.Y.Y.Y.e.e.v.v.Z.Z.Z.Z.Z.Z.Z.Z.Z.Z.v.v.e.e.R.R.R.S.N.C.U.`.$ $         ",
"          b $ $ W. +H..+Y.Y.Y.Y.e.e.v.v.Z.Z.Z.Z.Z.Z.Z.Z.Z.Z.v.v.e.e.R.R.R.S.M.++U.U.$ $         ",
"          b $ $ e.e.e.e.e.e.e.e.v.v.Z.Z.Z.Z.Z.Z.Z.Z.Z.Z.Z.Z.Z.Z.v.v.e.e.D.y.@+i.j.m.$ $     $ $ ",
"        ~ b $ $ e.e.e.e.e.e.e.e.v.v.Z.Z.Z.Z.Z.Z.Z.Z.Z.Z.Z.Z.Z.Z.v.v.e.e.e.D. +#+j.m.$ $     $ $ ",
"$ $     $ $ $ $ $ $ $+$+e.e.e.e.e.e.Z.Z.Z.Z.Z.Z.Z.Z.Z.Z.Z.Z.Z.Z.e.e.e.e.%+&+*+=+$ $ -+f . .     ",
"$ $   3 $ $ $ $ $ $ $+$+e.e.e.e.e.e.Z.Z.Z.Z.Z.Z.Z.Z.Z.Z.Z.Z.Z.Z.e.e.e.e.%+&+;+>+$ $ ,+f . .     ",
"    $ $ $ $ S '+)+!+$ $ $+$+$+$+$+$+e.e.e.e.v.v.v.v.v.v.e.e.e.e.%+%+~+~+~+~+$ $ {+]+^+. . . . . ",
"    $ $ $ $ /+(+_+:+$ $ $+$+$+$+$+$+e.e.e.e.v.v.v.v.v.v.e.e.e.e.%+%+~+~+~+~+$ $ <+b ^+[+. . . . ",
"    $ $ ^ o }+|+F 1+2+3+$ $ $+$+4+4+4+4+$+$+e.e.e.e.e.e.%+%+~+~+~+~+~+~+$ $ 5+6+7+8+2           ",
"    $ $ @ F.9+0+a+1+b+c+$ $ $+$+4+4+4+4+$+$+e.e.e.e.e.e.%+%+~+~+~+~+~+~+$ $ d+e+f+8+2           ",
"      g+A b h+i+j+k+l+m+V K $ $ 4+4+4+4+4+4+4+4+e.e.~+~+~+~+~+~+~+~+$ $ n+o+p+q+$ $ $ $ $ $     ",
"      3 A 2 r+s+t+u+v+w+x+K $ $ 4+4+4+4+4+4+4+4+e.e.~+~+~+~+~+~+~+~+$ $ y+z+A+B+$ $ $ $ $ $     ",
"$ $   3 B a.C+D+/.E+F+G+H+V K $ $ $ $+$+4+4+4+4+e.e.~+~+~+~+%+%+$ $ $ $ $ $ $ $ I+b         $ $ ",
"$ $     l J+_.K+L+M+N+..w+y+: < $ $ $+$+4+4+4+4+e.e.~+~+~+~+%+%+$ $ $ $ $ $ $ $ O+2         $ $ ",
". . . . 3 A ~ z 0.P+Q+~.R+S+: < < $ $ $ $+$+$+$+e.e.%+%+%+%+$ $ K : K T+$ $ U+V+W+^+. . . . . . ",
". . . .   A A b ]+) X+Q+Y+R+T+: : K $ $ $+$+$+$+e.e.%+%+%+%+$ $ : n+T+Z+$ $ 5 `+@ [+. . . . . . ",
". .       3 A ~ $ $ $ $ $ $ R+ @: K $ $ $ $ $+$+e.e.%+%+$ $ K K .@+@@@#@$@%@&@*@$ $ $ $ $ $ . . ",
". .         3 A $ $ $ $ $ $ =@p+ @T+$ $ $ $ $+$+e.e.%+%+$ $ * y+-@;@>@,@'@)@!@@ $ $ $ $ $ $ . . ",
"$ $ $ $ $ $ + ] { ^ ~@4 {@]@^@/@A+(@_@ @T+K $ $ e.e.$ $ T+T+T+_@:@<@[@}@|@!@1@. . . f f     . . ",
"$ $ $ $ $ $ . + ] 2@@ R / S 3@4@5@].6@(@(@$.$ $ e.e.$ $  @7@p+8@9@0@7+|@a@1@+ . . . f f     . . ",
". . . . . . . . . + 3 ~ $ $ $ $ $ $ b@<.c@A+d@e@$ $ f@g@d ~.$ $ $ $ h@a@2@+ . . . . . . . .     ",
". . . . . . . . . .     $ $ $ $ $ $ i@j@k@k@, l@$ $ m@n@o@p@$ $ $ $ c.] + . . . . . . . . .     "};
