/* XPM */
static char * charac_bot_diamond_left_xpm[] = {
"48 48 329 2",
"  	c #211516",
". 	c #522927",
"+ 	c #512927",
"@ 	c #4F2725",
"# 	c #4A2523",
"$ 	c #000000",
"% 	c #0F0808",
"& 	c #080404",
"* 	c #040202",
"= 	c #223630",
"- 	c #B71C02",
"; 	c #180807",
"> 	c #26100F",
", 	c #321715",
"' 	c #170D0E",
") 	c #1B1011",
"! 	c #1D1213",
"~ 	c #1F1415",
"{ 	c #502826",
"] 	c #512826",
"^ 	c #4E2725",
"/ 	c #492422",
"( 	c #0D0707",
"_ 	c #070304",
": 	c #020101",
"< 	c #150706",
"[ 	c #230E0D",
"} 	c #301614",
"| 	c #160D0E",
"1 	c #1A1011",
"2 	c #1F1414",
"3 	c #201516",
"4 	c #482321",
"5 	c #180E0F",
"6 	c #130A0B",
"7 	c #341B03",
"8 	c #090405",
"9 	c #100809",
"0 	c #150C0D",
"a 	c #1A1010",
"b 	c #1F1314",
"c 	c #120A0B",
"d 	c #0A0505",
"e 	c #160D0D",
"f 	c #703E27",
"g 	c #0C0606",
"h 	c #4F2E02",
"i 	c #3C1C1B",
"j 	c #44211F",
"k 	c #6E3D26",
"l 	c #3E1E1C",
"m 	c #462220",
"n 	c #4B2523",
"o 	c #6F3D26",
"p 	c #6C3B25",
"q 	c #663823",
"r 	c #5C321F",
"s 	c #4F2A19",
"t 	c #2D1413",
"u 	c #805503",
"v 	c #140C0C",
"w 	c #180F0F",
"x 	c #1C1112",
"y 	c #1E1314",
"z 	c #201415",
"A 	c #6D3C26",
"B 	c #683924",
"C 	c #603420",
"D 	c #542D1B",
"E 	c #321716",
"F 	c #4D2624",
"G 	c #482322",
"H 	c #411F1E",
"I 	c #381A19",
"J 	c #210D0C",
"K 	c #160707",
"L 	c #0D0303",
"M 	c #050101",
"N 	c #010000",
"O 	c #41201E",
"P 	c #4C2624",
"Q 	c #452220",
"R 	c #3E1D1C",
"S 	c #361917",
"T 	c #2B1312",
"U 	c #100504",
"V 	c #0A0302",
"W 	c #070202",
"X 	c #030101",
"Y 	c #010001",
"Z 	c #010101",
"` 	c #341817",
" .	c #2C1312",
"..	c #240F0E",
"+.	c #1D0B0A",
"@.	c #130605",
"#.	c #030102",
"$.	c #050202",
"%.	c #060303",
"&.	c #2D1412",
"*.	c #331716",
"=.	c #502A19",
"-.	c #582F1D",
";.	c #5F3420",
">.	c #653722",
",.	c #6A3B25",
"'.	c #3D1D1C",
").	c #371918",
"!.	c #2B1211",
"~.	c #0B0606",
"{.	c #0C0607",
"].	c #0E0708",
"^.	c #2E1513",
"/.	c #3D1D1B",
"(.	c #5A311E",
"_.	c #693A24",
":.	c #140B0C",
"<.	c #0F0809",
"[.	c #11090A",
"}.	c #361918",
"|.	c #391A19",
"1.	c #3B1C1A",
"2.	c #472321",
"3.	c #190F10",
"4.	c #43201F",
"5.	c #4A2423",
"6.	c #4C2524",
"7.	c #633621",
"8.	c #613521",
"9.	c #5E3320",
"0.	c #1B1112",
"a.	c #6B3B25",
"b.	c #673923",
"c.	c #4E2826",
"d.	c #6F3D27",
"e.	c #C2C2C2",
"f.	c #B5BFC2",
"g.	c #B6BFC2",
"h.	c #BAC0C3",
"i.	c #C9C4C3",
"j.	c #CAC4C3",
"k.	c #CAC5C3",
"l.	c #CBC5C3",
"m.	c #CCC5C3",
"n.	c #B8BFC2",
"o.	c #C7C3C2",
"p.	c #C8C4C2",
"q.	c #4D2725",
"r.	c #A9C3C3",
"s.	c #A8C2C2",
"t.	c #78C2C2",
"u.	c #77C2C2",
"v.	c #A9BBC2",
"w.	c #AABCC2",
"x.	c #ABBCC2",
"y.	c #C4C2C2",
"z.	c #B28BC2",
"A.	c #B38BC2",
"B.	c #BDAAC3",
"C.	c #BEAAC3",
"D.	c #C3C2C2",
"E.	c #4E2624",
"F.	c #4C2523",
"G.	c #C8C4C3",
"H.	c #A7C2C2",
"I.	c #76C2C2",
"J.	c #75C2C2",
"K.	c #A9BCC2",
"L.	c #B18BC2",
"M.	c #BCA9C2",
"N.	c #BDA9C2",
"O.	c #4E2625",
"P.	c #A5C2C2",
"Q.	c #B9A8C2",
"R.	c #AF8AC2",
"S.	c #B08AC2",
"T.	c #B08BC2",
"U.	c #C7C3C3",
"V.	c #74C2C2",
"W.	c #C6C3C3",
"X.	c #C5C3C3",
"Y.	c #73C2C2",
"Z.	c #91B5C2",
"`.	c #C8C3C3",
" +	c #C5C3C2",
".+	c #A6C2C2",
"++	c #BEA9C3",
"@+	c #C6C3C2",
"#+	c #C8C3C2",
"$+	c #C4B2C4",
"%+	c #80A1C2",
"&+	c #81A1C2",
"*+	c #528AC2",
"=+	c #548AC2",
"-+	c #6E3C26",
";+	c #508AC2",
">+	c #538AC2",
",+	c #6E3C25",
"'+	c #3B1C1C",
")+	c #462516",
"!+	c #321B0F",
"~+	c #4D89C2",
"{+	c #160B0C",
"]+	c #1D1314",
"^+	c #502725",
"/+	c #442220",
"(+	c #3B1C1B",
"_+	c #452416",
":+	c #311A0E",
"<+	c #160A0B",
"[+	c #502927",
"}+	c #442321",
"|+	c #3C1C1A",
"1+	c #23100F",
"2+	c #150606",
"3+	c #080202",
"4+	c #C29AC2",
"5+	c #28140A",
"6+	c #3E1F11",
"7+	c #3A1C1B",
"8+	c #452120",
"9+	c #452321",
"0+	c #3E1D1B",
"a+	c #341917",
"b+	c #170706",
"c+	c #090202",
"d+	c #29130B",
"e+	c #3F1F11",
"f+	c #3D1C1A",
"g+	c #201515",
"h+	c #623621",
"i+	c #582F1C",
"j+	c #4A2618",
"k+	c #381E11",
"l+	c #1B0807",
"m+	c #0C0404",
"n+	c #040201",
"o+	c #0F0504",
"p+	c #070404",
"q+	c #12090A",
"r+	c #643721",
"s+	c #5B301E",
"t+	c #4F2B19",
"u+	c #3D2113",
"v+	c #1F0908",
"w+	c #120505",
"x+	c #060202",
"y+	c #140605",
"z+	c #090606",
"A+	c #130A0A",
"B+	c #663724",
"C+	c #5E3220",
"D+	c #331615",
"E+	c #240C0C",
"F+	c #180707",
"G+	c #191010",
"H+	c #6C3C25",
"I+	c #613522",
"J+	c #421F1D",
"K+	c #371A18",
"L+	c #2B1313",
"M+	c #1B1314",
"N+	c #170E0E",
"O+	c #120909",
"P+	c #070303",
"Q+	c #030202",
"R+	c #020202",
"S+	c #170C0D",
"T+	c #190E0F",
"U+	c #492725",
"V+	c #140C0D",
"W+	c #0A0404",
"X+	c #060404",
"Y+	c #1A1213",
"Z+	c #030303",
"`+	c #060201",
" @	c #110603",
".@	c #1F0C07",
"+@	c #2F180C",
"@@	c #2C1413",
"#@	c #3A1D1D",
"$@	c #46201F",
"%@	c #492624",
"&@	c #0C0505",
"*@	c #140804",
"=@	c #200C07",
"-@	c #2F150C",
";@	c #402314",
">@	c #3A1B19",
",@	c #441F1E",
"'@	c #482624",
")@	c #4B2624",
"!@	c #432120",
"~@	c #3A1D1C",
"{@	c #321614",
"]@	c #291412",
"^@	c #050404",
"/@	c #040303",
"(@	c #170908",
"_@	c #251010",
":@	c #321817",
"<@	c #3B1B19",
"[@	c #43211F",
"}@	c #4F2625",
"|@	c #4F2826",
"1@	c #3B1F1F",
"2@	c #361717",
"3@	c #0F090A",
"4@	c #080506",
"5@	c #050303",
"6@	c #0B0404",
"7@	c #2C1414",
"8@	c #351917",
"9@	c #4A2624",
"0@	c #110809",
"a@	c #0B0707",
"b@	c #1B0C0A",
"c@	c #1A0909",
"d@	c #1B0707",
"e@	c #1B0908",
"f@	c #49211F",
"g@	c #151011",
"h@	c #150B0B",
"i@	c #150A0B",
"j@	c #2B1615",
"k@	c #2C1111",
"l@	c #2E1311",
"m@	c #0D0B0B",
"n@	c #130D0D",
"    . . . + @ # $ $ % & * $ $ = = - - - - - - - - - - - - = = $ $ ; > , ' ) ! ~ { . . .     $ $ ",
"    . . . ] ^ / $ $ ( _ : $ $ = = - - - - - - - - - - - - = = $ $ < [ } | 1 ! 2 { . . .     $ $ ",
"$ $ $ $   3 ^ 4 5 6 $ $ $ $ $ 7 7 7 7 $ $ $ $ $ $ = = = = = = $ $ * 8 9 0 a ! b $ $ $ $ $ $ $ $ ",
"$ $ $ $   3 ^ 4 5 c $ $ $ $ $ 7 7 7 7 $ $ $ $ $ $ = = = = = = $ $ * d 9 e 1 ! ~ $ $ $ $ $ $ $ $ ",
"f f . . $ $ $ $ $ $ g $ $ h h 7 7 $ $ $ $ $ $ $ $ $ $ h h h h h h $ $ $ i j # ^ k f f f . . f f ",
"f f . . $ $ $ $ $ $ ( $ $ h h 7 7 $ $ $ $ $ $ $ $ $ $ h h h h h h $ $ $ l m n @ o f f f . . f f ",
"f f         p q r s t $ $ $ $ $ $ $ $ $ $ $ $ $ $ $ $ $ $ u u u u $ $ v w x y z + . . . . .     ",
"f f         A B C D E $ $ $ $ $ $ $ $ $ $ $ $ $ $ $ $ $ $ u u u u $ $ ' 1 ! 2 3 . . . . . .     ",
"        . + { F G H I t J K L M : N N N $ $ $ $ $ $ N $ $ $ $ $ $ $ $ O 4 P $ $     . . . .     ",
"        . . ] @ n Q R S T J ; U V W X X N Y Y Z Z : : $ $ $ $ $ $ $ $ m n ^ $ $     . . . .     ",
"    . . . .   z b ! a ' `  ...+.K @.#.X $ $ * * * $.%._ J > &.*.=.-.;.>.,.A + . $ $ $ $ $ $     ",
"    . . . .   3 z y x a '.).} !.> J & & $ $ 8 d d ~.{.].^.*.I /.(.C >._.A o . . $ $ $ $ $ $     ",
"$ $             $ $ $ $ 1 5 e :.$ $ $ $ <.9 $ $ [.6 }.|.1.R H j 2.n F { ] . . . f f         $ $ ",
"$ $             $ $ $ $ ! x 1 3.$ $ $ $ e | $ $ 5 w O 4.j m 4 5.P ^ { ] . . . . f f         $ $ ",
". .     f f f f . + ] @ ^ 6.q 7.8.C 9.;.Q m 0.x x x ! ! ! y F ^ @ { + . . . . . . . . .     $ $ ",
". .     f f f f . . . ] { @ a._.B B b.B 6.P b b b 2 b 2 ~ z { { ] . . . . . . . . . . .     $ $ ",
"    . . . . . . . . . . . + ] { { c.^ @ { { z z z z z z z                       $ $ $ $ $ $     ",
"    . . . . . . . . . . . + ] ] { { { { { ]                                     $ $ $ $ $ $     ",
"$ $             $ $     3 z { { $ $ $ $ $ $ $ $ $ $ $ $ $ $ $ $ $ $                             ",
"$ $             $ $ 3 z z z @ ^ $ $ $ $ $ $ $ $ $ $ $ $ $ $ $ $ $ $                             ",
"            f f d.k z z $ $ $ $ e.e.e.e.e.e.f.f.g.g.h.h.i.i.j.k.l.m.$ $ $ $         $ $     . . ",
"            f d.k A ~ b $ $ $ $ e.e.e.e.e.e.f.f.g.g.n.n.o.o.p.p.i.j.$ $ $ $         $ $     . . ",
". .     . . + ] { q.$ $ j.i.r.s.t.u.e.e.v.v.w.w.x.x.x.x.w.w.y.y.z.A.B.C.D.D.$ $         $ $ $ $ ",
". .     . . ] { E.F.$ $ G.o.H.H.I.J.e.e.v.v.K.K.w.w.w.w.K.w.e.D.L.L.M.N.D.D.$ $         $ $ $ $ ",
". .         { O.$ $ i.G.t.u.I.J.P.P.e.e.e.e.e.e.e.e.e.e.e.e.e.e.Q.Q.R.S.T.T.U.U.$ $ . .     . . ",
". .       3 @ P $ $ G.o.u.J.J.V.P.P.e.e.e.e.e.e.e.e.e.e.e.e.e.e.Q.Q.R.R.S.T.W.U.$ $ . .     . . ",
"          z $ $ W.X.s.H.Y.Y.Y.Y.e.e.v.v.Z.Z.Z.Z.Z.Z.Z.Z.Z.Z.v.v.e.e.R.R.R.S.N.C.U.`.$ $         ",
"          b $ $ W. +H..+Y.Y.Y.Y.e.e.v.v.Z.Z.Z.Z.Z.Z.Z.Z.Z.Z.v.v.e.e.R.R.R.S.M.++U.U.$ $         ",
"          b $ $ e.e.e.e.e.e.e.e.v.v.Z.Z.Z.Z.Z.Z.Z.Z.Z.Z.Z.Z.Z.Z.v.v.e.e.D.y.@+i.j.m.$ $     $ $ ",
"        ~ b $ $ e.e.e.e.e.e.e.e.v.v.Z.Z.Z.Z.Z.Z.Z.Z.Z.Z.Z.Z.Z.Z.v.v.e.e.e.D. +#+j.m.$ $     $ $ ",
"$ $     $ $ $ $ $ $ $+$+e.e.e.e.e.e.Z.Z.Z.Z.Z.Z.Z.Z.Z.Z.Z.Z.Z.Z.e.e.e.e.%+&+*+=+$ $ -+f . .     ",
"$ $   3 $ $ $ $ $ $ $+$+e.e.e.e.e.e.Z.Z.Z.Z.Z.Z.Z.Z.Z.Z.Z.Z.Z.Z.e.e.e.e.%+&+;+>+$ $ ,+f . .     ",
"    $ $ $ $ Q '+)+!+$ $ $+$+$+$+$+$+e.e.e.e.v.v.v.v.v.v.e.e.e.e.%+%+~+~+~+~+$ $ {+]+^+. . . . . ",
"    $ $ $ $ /+(+_+:+$ $ $+$+$+$+$+$+e.e.e.e.v.v.v.v.v.v.e.e.e.e.%+%+~+~+~+~+$ $ <+b ^+[+. . . . ",
"    $ $ ^ n }+|+E 1+2+3+$ $ $+$+4+4+4+4+$+$+e.e.e.e.e.e.%+%+~+~+~+~+~+~+$ $ 5+6+7+8+2           ",
"    $ $ @ F.9+0+a+1+b+c+$ $ $+$+4+4+4+4+$+$+e.e.e.e.e.e.%+%+~+~+~+~+~+~+$ $ d+e+f+8+2           ",
"      g+z b h+i+j+k+l+m+X Z $ $ 4+4+4+4+4+4+4+4+e.e.~+~+~+~+~+~+~+~+$ $ n+o+p+q+$ $ $ $ $ $     ",
"      3 z 2 r+s+t+u+v+w+M Z $ $ 4+4+4+4+4+4+4+4+e.e.~+~+~+~+~+~+~+~+$ $ x+y+z+A+$ $ $ $ $ $     ",
"$ $   3 A a.B+C+/.D+E+F+V X Z $ $ $ $+$+4+4+4+4+e.e.~+~+~+~+%+%+$ $ $ $ $ $ $ $ G+b         $ $ ",
"$ $     k H+_.I+J+K+L++.w+x+: N $ $ $+$+4+4+4+4+e.e.~+~+~+~+%+%+$ $ $ $ $ $ $ $ M+2         $ $ ",
". . . . 3 z ~ y 0.N+O+~.P+Q+: N N $ $ $ $+$+$+$+e.e.%+%+%+%+$ $ Z : Z R+$ $ S+T+U+^+. . . . . . ",
". . . .   z z b ]+) V+O+W+P+R+: : Z $ $ $+$+$+$+e.e.%+%+%+%+$ $ : n+R+X+$ $ 5 Y+@ [+. . . . . . ",
". .       3 z ~ $ $ $ $ $ $ P+Z+: Z $ $ $ $ $+$+e.e.%+%+$ $ Z Z `+ @.@+@@@#@$@%@$ $ $ $ $ $ . . ",
". .         3 z $ $ $ $ $ $ &@p+Z+R+$ $ $ $ $+$+e.e.%+%+$ $ * x+*@=@-@;@>@,@'@@ $ $ $ $ $ $ . . ",
"$ $ $ $ $ $ + ] { ^ )@4 !@~@{@]@z+^@/@Z+R+Z $ $ e.e.$ $ R+R+R+/@(@_@:@<@[@'@}@. . . f f     . . ",
"$ $ $ $ $ $ . + ] |@@ P / Q 1@2@3@].4@^@^@$.$ $ e.e.$ $ Z+5@p+6@7@8@7+[@9@}@+ . . . f f     . . ",
". . . . . . . . . + 3 ~ $ $ $ $ $ $ 0@<.a@z+b@c@$ $ d@e@d ~.$ $ $ $ f@9@|@+ . . . . . . . .     ",
". . . . . . . . . .     $ $ $ $ $ $ g@h@i@i@, j@$ $ k@l@m@n@$ $ $ $ c.] + . . . . . . . . .     "};
