/* XPM */
static char * charac_mid_xpm[] = {
"48 20 20 1",
" 	c #211516",
".	c #522927",
"+	c #000000",
"@	c #FFE51B",
"#	c #FFBF1B",
"$	c #0C6FA6",
"%	c #EC9E19",
"&	c #FFFFFF",
"*	c #F1B983",
"=	c #CD7916",
"-	c #FFDEA6",
";	c #703E27",
">	c #285C55",
",	c #CC4402",
"'	c #223630",
")	c #E36002",
"!	c #5C3B20",
"~	c #B71C02",
"{	c #DB9451",
"]	c #D6A503",
"  ......+++@@@@##$$%%&&++****++%%++.    ....  ++",
"  ......+++@@@@##$$%%&&++****++%%++.    ....  ++",
"++++  .. ++%%####%%==&&++----++==%%++   ++++++++",
"++++  .. ++%%####%%==&&++----++==%%++   ++++++++",
";;..++++++ ++%%%%====**------**==+++....;;;;..;;",
";;..++++++ ++%%%%====**------**==+++....;;;;..;;",
";;    ;;;;...++==>>,,,,******,,>>++     ......  ",
";;    ;;;;...++==>>,,,,******,,>>++     ......  ",
"    .........++'''',,))>>>>>>))''>>++.++  ....  ",
"    .........++'''',,))>>>>>>))''>>++.++  ....  ",
"  ....     ++>>''''))))!!''))))''''>>++.++++++  ",
"  ....     ++>>''''))))!!''))))''''>>++.++++++  ",
"++      +++''''''++,,))))))))~~++{{****++;    ++",
"++      +++''''''++,,))))))))~~++{{****++;    ++",
"..  ;;;++**--**++++''~~~~~~~~''++++{{{{++...  ++",
"..  ;;;++**--**++++''~~~~~~~~''++++{{{{++...  ++",
"  .....++----++++~~~~'']]]]==~~,,++++++ ++++++  ",
"  .....++----++++~~~~'']]]]==~~,,++++++ ++++++  ",
"++      +++++ .++~~~~~~~~~~~~~~~~''++           ",
"++      +++++ .++~~~~~~~~~~~~~~~~''++           "};
