/* XPM */
static char * diamond_dirt_1_xpm[] = {
"48 48 239 2",
"  	c #211516",
". 	c #522927",
"+ 	c #000000",
"@ 	c #703E27",
"# 	c #512927",
"$ 	c #512826",
"% 	c #201516",
"& 	c #201415",
"* 	c #502826",
"= 	c #4F2725",
"- 	c #4E2725",
"; 	c #6F3D27",
"> 	c #6E3D26",
", 	c #C2C2C2",
"' 	c #B5BFC2",
") 	c #B6BFC2",
"! 	c #BAC0C3",
"~ 	c #C9C4C3",
"{ 	c #CAC4C3",
"] 	c #CAC5C3",
"^ 	c #CBC5C3",
"/ 	c #CCC5C3",
"( 	c #6D3C26",
"_ 	c #1F1415",
": 	c #1F1314",
"< 	c #B8BFC2",
"[ 	c #C7C3C2",
"} 	c #C8C4C2",
"| 	c #4D2725",
"1 	c #A9C3C3",
"2 	c #A8C2C2",
"3 	c #78C2C2",
"4 	c #77C2C2",
"5 	c #A9BBC2",
"6 	c #AABCC2",
"7 	c #ABBCC2",
"8 	c #C4C2C2",
"9 	c #B28BC2",
"0 	c #B38BC2",
"a 	c #BDAAC3",
"b 	c #BEAAC3",
"c 	c #C3C2C2",
"d 	c #4E2624",
"e 	c #4C2523",
"f 	c #C8C4C3",
"g 	c #A7C2C2",
"h 	c #76C2C2",
"i 	c #75C2C2",
"j 	c #A9BCC2",
"k 	c #B18BC2",
"l 	c #BCA9C2",
"m 	c #BDA9C2",
"n 	c #4E2625",
"o 	c #A5C2C2",
"p 	c #B9A8C2",
"q 	c #AF8AC2",
"r 	c #B08AC2",
"s 	c #B08BC2",
"t 	c #C7C3C3",
"u 	c #4C2624",
"v 	c #74C2C2",
"w 	c #C6C3C3",
"x 	c #C5C3C3",
"y 	c #73C2C2",
"z 	c #91B5C2",
"A 	c #C8C3C3",
"B 	c #C5C3C2",
"C 	c #A6C2C2",
"D 	c #BEA9C3",
"E 	c #C6C3C2",
"F 	c #C8C3C2",
"G 	c #C4B2C4",
"H 	c #80A1C2",
"I 	c #81A1C2",
"J 	c #528AC2",
"K 	c #548AC2",
"L 	c #6E3C26",
"M 	c #508AC2",
"N 	c #538AC2",
"O 	c #6E3C25",
"P 	c #452220",
"Q 	c #3B1C1C",
"R 	c #462516",
"S 	c #321B0F",
"T 	c #4D89C2",
"U 	c #160B0C",
"V 	c #1D1314",
"W 	c #502725",
"X 	c #442220",
"Y 	c #3B1C1B",
"Z 	c #452416",
"` 	c #311A0E",
" .	c #160A0B",
"..	c #502927",
"+.	c #4B2523",
"@.	c #442321",
"#.	c #3C1C1A",
"$.	c #321716",
"%.	c #23100F",
"&.	c #150606",
"*.	c #080202",
"=.	c #C29AC2",
"-.	c #28140A",
";.	c #3E1F11",
">.	c #3A1C1B",
",.	c #452120",
"'.	c #1F1414",
").	c #452321",
"!.	c #3E1D1B",
"~.	c #341917",
"{.	c #170706",
"].	c #090202",
"^.	c #29130B",
"/.	c #3F1F11",
"(.	c #3D1C1A",
"_.	c #201515",
":.	c #623621",
"<.	c #582F1C",
"[.	c #4A2618",
"}.	c #381E11",
"|.	c #1B0807",
"1.	c #0C0404",
"2.	c #030101",
"3.	c #010101",
"4.	c #040201",
"5.	c #0F0504",
"6.	c #070404",
"7.	c #12090A",
"8.	c #643721",
"9.	c #5B301E",
"0.	c #4F2B19",
"a.	c #3D2113",
"b.	c #1F0908",
"c.	c #120505",
"d.	c #050101",
"e.	c #060202",
"f.	c #140605",
"g.	c #090606",
"h.	c #130A0A",
"i.	c #6B3B25",
"j.	c #663724",
"k.	c #5E3220",
"l.	c #3D1D1B",
"m.	c #331615",
"n.	c #240C0C",
"o.	c #180707",
"p.	c #0A0302",
"q.	c #191010",
"r.	c #6C3C25",
"s.	c #693A24",
"t.	c #613522",
"u.	c #421F1D",
"v.	c #371A18",
"w.	c #2B1313",
"x.	c #1D0B0A",
"y.	c #020101",
"z.	c #010000",
"A.	c #1B1314",
"B.	c #1E1314",
"C.	c #1B1112",
"D.	c #170E0E",
"E.	c #120909",
"F.	c #0B0606",
"G.	c #070303",
"H.	c #030202",
"I.	c #020202",
"J.	c #170C0D",
"K.	c #190E0F",
"L.	c #492725",
"M.	c #1B1011",
"N.	c #140C0D",
"O.	c #0A0404",
"P.	c #060404",
"Q.	c #180E0F",
"R.	c #1A1213",
"S.	c #030303",
"T.	c #060201",
"U.	c #110603",
"V.	c #1F0C07",
"W.	c #2F180C",
"X.	c #2C1413",
"Y.	c #3A1D1D",
"Z.	c #46201F",
"`.	c #492624",
" +	c #0C0505",
".+	c #040202",
"++	c #140804",
"@+	c #200C07",
"#+	c #2F150C",
"$+	c #402314",
"%+	c #3A1B19",
"&+	c #441F1E",
"*+	c #482624",
"=+	c #4B2624",
"-+	c #482321",
";+	c #432120",
">+	c #3A1D1C",
",+	c #321614",
"'+	c #291412",
")+	c #050404",
"!+	c #040303",
"~+	c #170908",
"{+	c #251010",
"]+	c #321817",
"^+	c #3B1B19",
"/+	c #43211F",
"(+	c #4F2625",
"_+	c #4F2826",
":+	c #492422",
"<+	c #3B1F1F",
"[+	c #361717",
"}+	c #0F090A",
"|+	c #0E0708",
"1+	c #080506",
"2+	c #050202",
"3+	c #050303",
"4+	c #0B0404",
"5+	c #2C1414",
"6+	c #351917",
"7+	c #4A2624",
"8+	c #110809",
"9+	c #0F0809",
"0+	c #0B0707",
"a+	c #1B0C0A",
"b+	c #1A0909",
"c+	c #1B0707",
"d+	c #1B0908",
"e+	c #0A0505",
"f+	c #49211F",
"g+	c #151011",
"h+	c #150B0B",
"i+	c #150A0B",
"j+	c #321715",
"k+	c #2B1615",
"l+	c #2C1111",
"m+	c #2E1311",
"n+	c #0D0B0B",
"o+	c #130D0D",
"p+	c #4E2826",
"    . . . . . . + +             @ @ @ @ . .             + + . . . . . .         . . . .     + + ",
"    . . . . . . + +             @ @ @ @ . .             + + . . . . . .         . . . .     + + ",
"+ + + +     . .     + + + +         + + + +                                     + + + + + + + + ",
"+ + + +     . .     + + + +         + + + +                                     + + + + + + + + ",
"@ @ . . + + + + + +     @ @ @ @ . . . .     + + . . . . . .         + + . . . . @ @ @ @ . . @ @ ",
"@ @ . . + + + + + +     @ @ @ @ . . . .     + + . . . . . .         + + . . . . @ @ @ @ . . @ @ ",
"@ @         @ @ @ @ . . . . . . @ @ @ @ . .         . .         + +             . . . . . .     ",
"@ @         @ @ @ @ . . . . . . @ @ @ @ . .         . .         + +             . . . . . .     ",
"        . . . . . . . . . . . . . . . .                     @ @ @ @ . . . . + +     . . . .     ",
"        . . . . . . . . . . . . . . . .                     @ @ @ @ . . . . + +     . . . .     ",
"    . . . .             . . . . . .     + +             . . . . @ @ @ @ @ @ . . + + + + + +     ",
"    . . . .             . . . . . .     + +             . . . . @ @ @ @ @ @ . . + + + + + +     ",
"+ +             + + + +         + + + +     + +     . . . . . . . . . . . . . . @ @         + + ",
"+ +             + + + +         + + + +     + +     . . . . . . . . . . . . . . @ @         + + ",
". .     @ @ @ @ . . . . . . @ @ @ @ @ @ . .                 . . . . . . . . . . . . . .     + + ",
". .     @ @ @ @ . . . . . . @ @ @ @ @ @ . .                 . . . . . . . . . . . . . .     + + ",
"    . . . . . . . . . . . . . . . # # . . .                                     + + + + + +     ",
"    . . . . . . . . . . . # $ $ $ $ $ $ $ $                                     + + + + + +     ",
"+ +             + +     % & * * + + + + + + + + + + + + + + + + + +                             ",
"+ +             + + % & & & = - + + + + + + + + + + + + + + + + + +                             ",
"            @ @ ; > & & + + + + , , , , , , ' ' ) ) ! ! ~ ~ { ] ^ / + + + +         + +     . . ",
"            @ ; > ( _ : + + + + , , , , , , ' ' ) ) < < [ [ } } ~ { + + + +         + +     . . ",
". .     . . # $ * | + + { ~ 1 2 3 4 , , 5 5 6 6 7 7 7 7 6 6 8 8 9 0 a b c c + +         + + + + ",
". .     . . $ * d e + + f [ g g h i , , 5 5 j j 6 6 6 6 j 6 , c k k l m c c + +         + + + + ",
". .         * n + + ~ f 3 4 h i o o , , , , , , , , , , , , , , p p q r s s t t + + . .     . . ",
". .       % = u + + f [ 4 i i v o o , , , , , , , , , , , , , , p p q q r s w t + + . .     . . ",
"          & + + w x 2 g y y y y , , 5 5 z z z z z z z z z z 5 5 , , q q q r m b t A + +         ",
"          : + + w B g C y y y y , , 5 5 z z z z z z z z z z 5 5 , , q q q r l D t t + +         ",
"          : + + , , , , , , , , 5 5 z z z z z z z z z z z z z z 5 5 , , c 8 E ~ { / + +     + + ",
"        _ : + + , , , , , , , , 5 5 z z z z z z z z z z z z z z 5 5 , , , c B F { / + +     + + ",
"+ +     + + + + + + G G , , , , , , z z z z z z z z z z z z z z , , , , H I J K + + L @ . .     ",
"+ +   % + + + + + + G G , , , , , , z z z z z z z z z z z z z z , , , , H I M N + + O @ . .     ",
"    + + + + P Q R S + + G G G G G G , , , , 5 5 5 5 5 5 , , , , H H T T T T + + U V W . . . . . ",
"    + + + + X Y Z ` + + G G G G G G , , , , 5 5 5 5 5 5 , , , , H H T T T T + +  .: W ... . . . ",
"    + + - +.@.#.$.%.&.*.+ + G G =.=.=.=.G G , , , , , , H H T T T T T T + + -.;.>.,.'.          ",
"    + + = e ).!.~.%.{.].+ + G G =.=.=.=.G G , , , , , , H H T T T T T T + + ^./.(.,.'.          ",
"      _.& : :.<.[.}.|.1.2.3.+ + =.=.=.=.=.=.=.=., , T T T T T T T T + + 4.5.6.7.+ + + + + +     ",
"      % & '.8.9.0.a.b.c.d.3.+ + =.=.=.=.=.=.=.=., , T T T T T T T T + + e.f.g.h.+ + + + + +     ",
"+ +   % ( i.j.k.l.m.n.o.p.2.3.+ + + G G =.=.=.=., , T T T T H H + + + + + + + + q.:         + + ",
"+ +     > r.s.t.u.v.w.x.c.e.y.z.+ + G G =.=.=.=., , T T T T H H + + + + + + + + A.'.        + + ",
". . . . % & _ B.C.D.E.F.G.H.y.z.z.+ + + G G G G , , H H H H + + 3.y.3.I.+ + J.K.L.W . . . . . . ",
". . . .   & & : V M.N.E.O.G.I.y.y.3.+ + G G G G , , H H H H + + y.4.I.P.+ + Q.R.= ... . . . . . ",
". .       % & _ + + + + + + G.S.y.3.+ + + + G G , , H H + + 3.3.T.U.V.W.X.Y.Z.`.+ + + + + + . . ",
". .         % & + + + + + +  +6.S.I.+ + + + G G , , H H + + .+e.++@+#+$+%+&+*+= + + + + + + . . ",
"+ + + + + + # $ * - =+-+;+>+,+'+g.)+!+S.I.3.+ + , , + + I.I.I.!+~+{+]+^+/+*+(+. . . @ @     . . ",
"+ + + + + + . # $ _+= u :+P <+[+}+|+1+)+)+2++ + , , + + S.3+6.4+5+6+>./+7+(+# . . . @ @     . . ",
". . . . . . . . . # % _ + + + + + + 8+9+0+g.a+b++ + c+d+e+F.+ + + + f+7+_+# . . . . . . . .     ",
". . . . . . . . . .     + + + + + + g+h+i+i+j+k++ + l+m+n+o++ + + + p+$ # . . . . . . . . .     "};
