/* XPM */
static char * diamond_mid_xpm[] = {
"48 20 209 2",
"  	c #211516",
". 	c #522927",
"+ 	c #502927",
"@ 	c #4F2624",
"# 	c #000000",
"$ 	c #C2C2C2",
"% 	c #A9BBC2",
"& 	c #91B5C2",
"* 	c #C6C3C3",
"= 	c #C7C3C3",
"- 	c #512927",
"; 	c #4E2624",
"> 	c #C5C3C3",
", 	c #1E1415",
"' 	c #4A2523",
") 	c #411D1B",
"! 	c #C4B2C4",
"~ 	c #80A1C2",
"{ 	c #4E89C2",
"] 	c #4E8AC2",
"^ 	c #201415",
"/ 	c #40211F",
"( 	c #703E27",
"_ 	c #4D89C2",
": 	c #4A2718",
"< 	c #57301D",
"[ 	c #623720",
"} 	c #693E27",
"| 	c #462516",
"1 	c #552F1B",
"2 	c #693727",
"3 	c #1F1415",
"4 	c #673A24",
"5 	c #613520",
"6 	c #552B17",
"7 	c #3B2015",
"8 	c #1A0C0C",
"9 	c #0B0303",
"0 	c #C29AC2",
"a 	c #050303",
"b 	c #0B0506",
"c 	c #311615",
"d 	c #3D1B1A",
"e 	c #442220",
"f 	c #4B2927",
"g 	c #693A24",
"h 	c #633522",
"i 	c #552B1A",
"j 	c #452415",
"k 	c #230E0C",
"l 	c #0D0404",
"m 	c #502826",
"n 	c #4F2725",
"o 	c #4D2624",
"p 	c #4A2423",
"q 	c #3D2121",
"r 	c #331715",
"s 	c #280F0E",
"t 	c #170606",
"u 	c #070303",
"v 	c #020000",
"w 	c #020101",
"x 	c #060302",
"y 	c #120A0A",
"z 	c #180E0F",
"A 	c #4B2523",
"B 	c #402321",
"C 	c #341A18",
"D 	c #2A1212",
"E 	c #1A0807",
"F 	c #0B0404",
"G 	c #030101",
"H 	c #090302",
"I 	c #130B0C",
"J 	c #1A0E0F",
"K 	c #482220",
"L 	c #512826",
"M 	c #4F2826",
"N 	c #1F1314",
"O 	c #1E1314",
"P 	c #1C1112",
"Q 	c #141011",
"R 	c #120809",
"S 	c #0A0607",
"T 	c #110605",
"U 	c #070202",
"V 	c #070401",
"W 	c #180704",
"X 	c #1C0C0B",
"Y 	c #2C1312",
"Z 	c #1D1213",
"` 	c #13090A",
" .	c #100808",
"..	c #1C0907",
"+.	c #050101",
"@.	c #010000",
"#.	c #030201",
"$.	c #100502",
"%.	c #210B08",
"&.	c #220F0E",
"*.	c #0C0808",
"=.	c #050202",
"-.	c #010101",
";.	c #100404",
">.	c #1C0A0A",
",.	c #291312",
"'.	c #371A19",
").	c #58301E",
"!.	c #201516",
"~.	c #130909",
"{.	c #080707",
"].	c #0E0404",
"^.	c #180A09",
"/.	c #271111",
"(.	c #331816",
"_.	c #5D3220",
":.	c #693720",
"<.	c #6F3D27",
"[.	c #6E3D26",
"}.	c #6D3C26",
"|.	c #4E2725",
"1.	c #411C1B",
"2.	c #381B1A",
"3.	c #2B1615",
"4.	c #2D160B",
"5.	c #200D07",
"6.	c #120604",
"7.	c #040201",
"8.	c #060303",
"9.	c #180606",
"0.	c #270E0E",
"a.	c #2F1716",
"b.	c #3A1B19",
"c.	c #432220",
"d.	c #4A2220",
"e.	c #442523",
"f.	c #421D1B",
"g.	c #3A1C1A",
"h.	c #401F18",
"i.	c #33190B",
"j.	c #221007",
"k.	c #180B04",
"l.	c #0F0403",
"m.	c #0A0202",
"n.	c #040202",
"o.	c #090303",
"p.	c #100504",
"q.	c #1A0706",
"r.	c #260F0E",
"s.	c #301616",
"t.	c #41201F",
"u.	c #452220",
"v.	c #4B2727",
"w.	c #512827",
"x.	c #4F2726",
"y.	c #442624",
"z.	c #431D1C",
"A.	c #3B1D1B",
"B.	c #2F1D1B",
"C.	c #280F0F",
"D.	c #1F0C0B",
"E.	c #160706",
"F.	c #110403",
"G.	c #0C0302",
"H.	c #020202",
"I.	c #030203",
"J.	c #040203",
"K.	c #080505",
"L.	c #0D0808",
"M.	c #130B0B",
"N.	c #160E0F",
"O.	c #452424",
"P.	c #451E1C",
"Q.	c #311D1C",
"R.	c #311211",
"S.	c #261311",
"T.	c #22100F",
"U.	c #1D0C0B",
"V.	c #130808",
"W.	c #070404",
"X.	c #0F0707",
"Y.	c #100809",
"Z.	c #140E0F",
"`.	c #190E0F",
" +	c #1A0F0F",
".+	c #472725",
"++	c #462323",
"@+	c #431D1D",
"#+	c #391C1A",
"$+	c #301412",
"%+	c #0C0606",
"&+	c #0C0505",
"*+	c #0A0303",
"=+	c #0C0404",
"-+	c #100B0B",
";+	c #140B0C",
">+	c #170E0F",
",+	c #1A1516",
"'+	c #482826",
")+	c #452826",
"!+	c #432423",
"~+	c #1D1112",
"{+	c #191112",
"]+	c #191213",
"^+	c #151212",
"/+	c #100B0C",
"(+	c #120B0C",
"_+	c #170B0C",
":+	c #1A1010",
"    . . + @ # # $ $ $ $ $ $ $ $ % % & & & & & & & & & & & & & & % % $ $ $ $ $ $ * = # #     # # ",
"    . . - ; # # $ $ $ $ $ $ $ $ % % & & & & & & & & & & & & & & % % $ $ $ $ $ $ > * # #     # # ",
"# # # #   , ' ) # # ! ! $ $ $ $ $ $ & & & & & & & & & & & & & & $ $ $ $ ~ ~ { ] # # # # # # # # ",
"# # # # ^ ^ ' / # # ! ! $ $ $ $ $ $ & & & & & & & & & & & & & & $ $ $ $ ~ ~ { ] # # # # # # # # ",
"( ( . - # # # # # # # # ! ! ! ! ! ! $ $ $ $ % % % % % % $ $ $ $ ~ ~ _ _ _ { # # : < [ } . . ( ( ",
"( ( . - # # # # # # # # ! ! ! ! ! ! $ $ $ $ % % % % % % $ $ $ $ ~ ~ _ _ _ { # # | 1 [ 2 . . ( ( ",
"( (     ^ 3 4 5 6 7 8 9 # # ! ! 0 0 0 0 ! ! $ $ $ $ $ $ ~ ~ _ _ _ _ _ _ # # a b c d e f . .     ",
"( (     ^ 3 g h i j k l # # ! ! 0 0 0 0 ! ! $ $ $ $ $ $ ~ ~ _ _ _ _ _ _ # # a b c d e f . .     ",
"        m n o p q r s t u v # # 0 0 0 0 0 0 0 0 $ $ _ _ _ _ _ _ _ _ # # w x # # y z e f . .     ",
"        m n o A B C D E F G # # 0 0 0 0 0 0 0 0 $ $ _ _ _ _ _ _ _ _ # # G H # # I J K f . .     ",
"    . - L M N O P Q R S T U v # # # ! ! 0 0 0 0 $ $ _ _ _ _ ~ ~ # # # w V W X Y # # # # # #     ",
"    . . L m 3 O Z P `  ...F +.@.# # ! ! 0 0 0 0 $ $ _ _ _ _ ~ ~ # # w #.$.%.&.c # # # # # #     ",
"# #       ^ ^ N # # # # *.=.G -.# # # # ! ! ! ! $ $ ~ ~ ~ ~ # # # -.w x ;.>.,.'.).[         # # ",
"# #       !.^ 3 # # # # ~.{.=.G # # # # ! ! ! ! $ $ ~ ~ ~ ~ # # -.w =.].^./.(.d _.:.        # # ",
". .     ( <.[.}.|.o A 1.2.3.4.5.6.H 7.w # # ! ! $ $ ~ ~ # # -.-.w 8.].9.0.a.b.c.d.f . .     # # ",
". .     ( ( <.[.n |.o e.f.g.h.i.j.k.l.m.# # ! ! $ $ ~ ~ # # w n.o.p.q.r.s.b.t.u.v.. . .     # # ",
"    . . . . . w.m x.|.o y.z.A.B.C.D.E.F.G.=.# # $ $ # # H.H.H.I.J.K.L.M.N.J J   # # # # # #     ",
"    . . . . . . w.m m n |.o O.P.Q.R.S.T.U.V.# # $ $ # # n.8.8.W.X.Y.Z.`.J  +    # # # # # #     ",
"# #             # # !.^ ^ ^ n .+++@+#+$+%+&+&+%+# # *+=+l *.-+I ;+>+J J ,+                      ",
"# #             # #     !.^ m m m '+)+!+~+{+]+^+# # /+(+_+_+_+>+J :+,+                          "};
