/* XPM */
static char * floor_dirt_1_half_xpm[] = {
"48 20 4 1",
" 	c #211516",
".	c #522927",
"+	c #000000",
"@	c #703E27",
"  ......++      @@@@..      ++......    ....  ++",
"  ......++      @@@@..      ++......    ....  ++",
"++++  ..  ++++    ++++                  ++++++++",
"++++  ..  ++++    ++++                  ++++++++",
"@@..++++++  @@@@....  ++......    ++....@@@@..@@",
"@@..++++++  @@@@....  ++......    ++....@@@@..@@",
"@@    @@@@......@@@@..    ..    ++      ......  ",
"@@    @@@@......@@@@..    ..    ++      ......  ",
"    ................          @@@@....++  ....  ",
"    ................          @@@@....++  ....  ",
"  ....      ......  ++      ....@@@@@@..++++++  ",
"  ....      ......  ++      ....@@@@@@..++++++  ",
"++      ++++    ++++  ++  ..............@@    ++",
"++      ++++    ++++  ++  ..............@@    ++",
"..  @@@@......@@@@@@..        ..............  ++",
"..  @@@@......@@@@@@..        ..............  ++",
"  ....................                  ++++++  ",
"  ....................                  ++++++  ",
"++      ++    ......                            ",
"++      ++    ......                            "};
