/* XPM */
static char * floor_dirt_2_xpm[] = {
"48 48 7 1",
" 	c #191112",
".	c #371D1B",
"+	c #000000",
"@	c #522E1D",
"#	c #211516",
"$	c #703E27",
"%	c #522927",
"  ......++      @@@@..      ++......    ....  ++",
"  ......++      @@@@..      ++......    ....  ++",
"++++  ..  ++++    ++++                  ++++++++",
"++++  ..  ++++    ++++                  ++++++++",
"@@..++++++  @@@@....  ++......    ++....@@@@..@@",
"@@..++++++  @@@@....  ++......    ++....@@@@..@@",
"@@    @@@@......@@@@..    ..    ++      ......  ",
"@@    @@@@......@@@@..    ..    ++      ......  ",
"    ................          @@@@....++  ....  ",
"    ................          @@@@....++  ....  ",
"  ....      ......  ++      ....@@@@@@..++++++  ",
"  ....      ......  ++      ....@@@@@@..++++++  ",
"++      ++++    ++++  ++  ..............@@    ++",
"++      ++++    ++++  ++  ..............@@    ++",
"..  @@@@......@@@@@@..        ..............  ++",
"..  @@@@......@@@@@@..        ..............  ++",
"  ....................                  ++++++  ",
"  ....................                  ++++++  ",
"++      ++    ......                            ",
"++      ++    ......                            ",
"######$$$$##++++++++++++##%%$$$$$$%%%%####++##%%",
"######$$$$##++++++++++++##%%$$$$$$%%%%####++##%%",
"%%##%%%%%%$$$$%%%%++++%%$$$$%%%%%%%%########++++",
"%%##%%%%%%$$$$%%%%++++%%$$$$%%%%%%%%########++++",
"%%####%%$$$$%%%%%%%%++##%%%%%%########%%%%%%##%%",
"%%####%%$$$$%%%%%%%%++##%%%%%%########%%%%%%##%%",
"########%%%%######%%##########++++####%%%%######",
"########%%%%######%%##########++++####%%%%######",
"##############++########%%%%%%%%$$%%$$$$$$%%##++",
"##############++########%%%%%%%%$$%%$$$$$$%%##++",
"++##++++++##++######%%%%%%%%%%%%%%##%%%%$$$$%%##",
"++##++++++##++######%%%%%%%%%%%%%%##%%%%$$$$%%##",
"##++++%%$$$$######%%%%%%%%%%##%%%%%%######%%%%%%",
"##++++%%$$$$######%%%%%%%%%%##%%%%%%######%%%%%%",
"##++%%%%%%%%$$##########++++%%$$$$$$%%$$%%######",
"##++%%%%%%%%$$##########++++%%$$$$$$%%$$%%######",
"######$$$$%%%%%%######++%%%%%%%%%%%%%%##++++++##",
"######$$$$%%%%%%######++%%%%%%%%%%%%%%##++++++##",
"++##$$$$%%%%%%%%##%%%%%%########++++++++######++",
"++##$$$$%%%%%%%%##%%%%%%########++++++++######++",
"%%%%############%%##%%++##%%$$$$$$##++##%%%%%%%%",
"%%%%############%%##%%++##%%$$$$$$##++##%%%%%%%%",
"%%######++++++####++++++%%%%%%%%$$$$%%%%++++++%%",
"%%######++++++####++++++%%%%%%%%$$$$%%%%++++++%%",
"++++++%%%%%%%%%%######++++++####%%%%%%%%%%$$##%%",
"++++++%%%%%%%%%%######++++++####%%%%%%%%%%$$##%%",
"%%%%%%%%%%##++++++####%%%%%%##++++%%%%%%%%%%%%##",
"%%%%%%%%%%##++++++####%%%%%%##++++%%%%%%%%%%%%##"};
