/* XPM */
static char * floor_dirt_2_half_xpm[] = {
"48 20 4 1",
" 	c #191112",
".	c #371D1B",
"+	c #000000",
"@	c #522E1D",
"  ......++      @@@@..      ++......    ....  ++",
"  ......++      @@@@..      ++......    ....  ++",
"++++  ..  ++++    ++++                  ++++++++",
"++++  ..  ++++    ++++                  ++++++++",
"@@..++++++  @@@@....  ++......    ++....@@@@..@@",
"@@..++++++  @@@@....  ++......    ++....@@@@..@@",
"@@    @@@@......@@@@..    ..    ++      ......  ",
"@@    @@@@......@@@@..    ..    ++      ......  ",
"    ................          @@@@....++  ....  ",
"    ................          @@@@....++  ....  ",
"  ....      ......  ++      ....@@@@@@..++++++  ",
"  ....      ......  ++      ....@@@@@@..++++++  ",
"++      ++++    ++++  ++  ..............@@    ++",
"++      ++++    ++++  ++  ..............@@    ++",
"..  @@@@......@@@@@@..        ..............  ++",
"..  @@@@......@@@@@@..        ..............  ++",
"  ....................                  ++++++  ",
"  ....................                  ++++++  ",
"++      ++    ......                            ",
"++      ++    ......                            "};
