/* XPM */
static char * charac_bot_left_xpm[] = {
"48 20 9 1",
" 	c #211516",
".	c #522927",
"+	c #000000",
"@	c #223630",
"#	c #B71C02",
"$	c #341B03",
"%	c #703E27",
"&	c #4F2E02",
"*	c #805503",
"  ......++   ++@@############@@++...    ....  ++",
"  ......++   ++@@############@@++...    ....  ++",
"++++  ..  +++++$$$$++++++@@@@@@++       ++++++++",
"++++  ..  +++++$$$$++++++@@@@@@++       ++++++++",
"%%..++++++ ++&&$$++.  ++.++&&&&&&+++....%%%%..%%",
"%%..++++++ ++&&$$++.  ++.++&&&&&&+++....%%%%..%%",
"%%    %%%%.++++++%%%..    .++****++     ......  ",
"%%    %%%%.++++++%%%..    .++****++     ......  ",
"    ................       ++++++++...++  ....  ",
"    ................       ++++++++...++  ....  ",
"  ....      ......  ++      ....%%%%%%..++++++  ",
"  ....      ......  ++      ....%%%%%%..++++++  ",
"++      ++++    ++++  ++  ..............%%    ++",
"++      ++++    ++++  ++  ..............%%    ++",
"..  %%%%......%%%%%%..        ..............  ++",
"..  %%%%......%%%%%%..        ..............  ++",
"  ....................                  ++++++  ",
"  ....................                  ++++++  ",
"++      ++    ......                            ",
"++      ++    ......                            "};
