/* XPM */
static char * diamond_floor_charac_left_xpm[] = {
"48 48 58 1",
" 	c #211516",
".	c #522927",
"+	c #000000",
"@	c #C3C2C2",
"#	c #C2C2C2",
"$	c #B5BFC2",
"%	c #B7BFC2",
"&	c #703E27",
"*	c #CDC5C3",
"=	c #B2C5C3",
"-	c #88C5C3",
";	c #7EC3C3",
">	c #C8C3C3",
",	c #B0BDC3",
"'	c #AABCC2",
")	c #A9BBC2",
"!	c #B08BC2",
"~	c #BAA9C2",
"{	c #B9A8C2",
"]	c #ACC3C3",
"^	c #AF8AC2",
"/	c #9AB7C3",
"(	c #93B6C2",
"_	c #B7BFC3",
":	c #BC8FC3",
"<	c #B68DC3",
"[	c #C0AAC3",
"}	c #91B5C2",
"|	c #C4B2C4",
"1	c #8AA3C3",
"2	c #5F8CC3",
"3	c #CAB4C6",
"4	c #CFB6C6",
"5	c #C89CC3",
"6	c #82A2C2",
"7	c #518AC2",
"8	c #C39BC2",
"9	c #C29AC2",
"0	c #4E8AC2",
"a	c #538AC2",
"b	c #588BC2",
"c	c #86A3C2",
"d	c #3E2012",
"e	c #2C1312",
"f	c #C6B3C5",
"g	c #C4C2C2",
"h	c #C5C3C2",
"i	c #83A2C2",
"j	c #0F0708",
"k	c #C5B2C4",
"l	c #00A1BA",
"m	c #FFFFFF",
"n	c #FFE51B",
"o	c #FFBF1B",
"p	c #0C6FA6",
"q	c #E2A174",
"r	c #F1B983",
"s	c #EC9E19",
"  ......++     ++++++++++++++++++...    ....  ++",
"  ......++     ++++++++++++++++++...    ....  ++",
"++++  ..  +++++@@@###$%%%%%@@@@@@++++   ++++++++",
"++++  ..  +++++@@@###$%%%%%@@@@@@++++   ++++++++",
"&&..+++++++@*==-;>>,'')),,,,,>@!!~{#>++.&&&&..&&",
"&&..+++++++@*==-;>>,'')),,,,,>@!!~{#>++.&&&&..&&",
"&&    &++*>;;;;]=***>>@@@@>>@@@~{^!!!@@++.....  ",
"&&    &++*>;;;;]=***>>@@@@>>@@@~{^!!!@@++.....  ",
"    .++>>]];;;;>>,,/((((((((('_**:<<<[{#@++...  ",
"    .++>>]];;;;>>,,/((((((((('_**:<<<[{#@++...  ",
"  ...++@@@@@>>>,,/((}}((((((///,_*****>>#+++++  ",
"  ...++@@@@@>>>,,/((}}((((((///,_*****>>#+++++  ",
"++     ++||#@@@@#}}}((}}((/////>>>>1122++&    ++",
"++     ++||#@@@@#}}}((}}((/////>>>>1122++&    ++",
"..  &&&&.++333444***>,'''''@@@>112222++.....  ++",
"..  &&&&.++333444***>,'''''@@@>112222++.....  ++",
"  .........++33555533>@@@@@66777777++   ++++++  ",
"  .........++33555533>@@@@@66777777++   ++++++  ",
"++      ++   ++55555888@@77777777++             ",
"++      ++   ++55555888@@77777777++             ",
"      &&&&  +++++||9999##0aabcc++&....    ++  ..",
"      &&&&  +++++||9999##0aabcc++de...    ++  ..",
"..  ......ddddeee++|||fghccci++eeeeej       ++++",
"..  ....eeddddeee++|||fghccci++eeeeejjj     ++++",
"..    .eddddeeeeeee++|k#gii++ejjjjjjjjee....  ..",
"..    .eddddeeeeeee++|k#gii++ejjjjjjjjee....  ..",
"       jeeeejjjjjjeej++##++jjj++++jjjjee..      ",
"       jeeeejjjjjjeej++##++jjj++++jjjjee..      ",
"       jjjjjjj++jjjjjjj++eeeeeeeddeedddd&&..  ++",
"        jjjjjj++jjjjjjj++eeeeeeeddeeddd&&&..  ++",
"++  ++++++jj++jjjjjjeeeeeeeeeeeeeejje...&&&&..  ",
"++  ++++++  ++jjjjjjeeeeeeeeeeeeeej ....&&&&..  ",
"  ++++..&&&&    jjeeeeeeeeeejje.....      ......",
"  ++++..&&&&      ..........  ......      ......",
"  ++........&&          ++++..&&&&&&..&&..      ",
"  ++........&&          ++++..&&&&&&..&&..      ",
"      &&&&......   ++++++++++.........  ++++++  ",
"      &&&&......   ++++++++++.........  ++++++  ",
"++  &&&&.......++++llmmmmllll++ ++++++++      ++",
"++  &&&&.......++++llmmmmllll++ ++++++++      ++",
"....         ++nnnnnnnnoollllll++&  ++  ........",
"....         ++nnnnnnnnoollllll++&  ++  ........",
"..      +++++nnnnoooonnnnooppll++&&&....++++++..",
"..      +++++nnnnoooonnnnooppll++&&&....++++++..",
"++++++.....++nnoooooooooooooopppp++.......&&  ..",
"++++++.....++nnoooooooooooooopppp++.......&&  ..",
".......... ++ooooqqrrrrrrqqssppppnn++.........  ",
".......... ++ooooqqrrrrrrqqssppppnn++.........  "};
