/* XPM */
static char * diamond_floor_half_xpm[] = {
"48 20 37 1",
" 	c #211516",
".	c #522927",
"+	c #000000",
"@	c #C3C2C2",
"#	c #C2C2C2",
"$	c #B5BFC2",
"%	c #B7BFC2",
"&	c #703E27",
"*	c #CDC5C3",
"=	c #B2C5C3",
"-	c #88C5C3",
";	c #7EC3C3",
">	c #C8C3C3",
",	c #B0BDC3",
"'	c #AABCC2",
")	c #A9BBC2",
"!	c #B08BC2",
"~	c #BAA9C2",
"{	c #B9A8C2",
"]	c #ACC3C3",
"^	c #AF8AC2",
"/	c #9AB7C3",
"(	c #93B6C2",
"_	c #B7BFC3",
":	c #BC8FC3",
"<	c #B68DC3",
"[	c #C0AAC3",
"}	c #91B5C2",
"|	c #C4B2C4",
"1	c #8AA3C3",
"2	c #5F8CC3",
"3	c #CAB4C6",
"4	c #CFB6C6",
"5	c #C89CC3",
"6	c #82A2C2",
"7	c #518AC2",
"8	c #C39BC2",
"  ......++     ++++++++++++++++++...    ....  ++",
"  ......++     ++++++++++++++++++...    ....  ++",
"++++  ..  +++++@@@###$%%%%%@@@@@@++++   ++++++++",
"++++  ..  +++++@@@###$%%%%%@@@@@@++++   ++++++++",
"&&..+++++++@*==-;>>,'')),,,,,>@!!~{#>++.&&&&..&&",
"&&..+++++++@*==-;>>,'')),,,,,>@!!~{#>++.&&&&..&&",
"&&    &++*>;;;;]=***>>@@@@>>@@@~{^!!!@@++.....  ",
"&&    &++*>;;;;]=***>>@@@@>>@@@~{^!!!@@++.....  ",
"    .++>>]];;;;>>,,/((((((((('_**:<<<[{#@++...  ",
"    .++>>]];;;;>>,,/((((((((('_**:<<<[{#@++...  ",
"  ...++@@@@@>>>,,/((}}((((((///,_*****>>#+++++  ",
"  ...++@@@@@>>>,,/((}}((((((///,_*****>>#+++++  ",
"++     ++||#@@@@#}}}((}}((/////>>>>1122++&    ++",
"++     ++||#@@@@#}}}((}}((/////>>>>1122++&    ++",
"..  &&&&.++333444***>,'''''@@@>112222++.....  ++",
"..  &&&&.++333444***>,'''''@@@>112222++.....  ++",
"  .........++33555533>@@@@@66777777++   ++++++  ",
"  .........++33555533>@@@@@66777777++   ++++++  ",
"++      ++   ++55555888@@77777777++             ",
"++      ++   ++55555888@@77777777++             "};
