/* XPM */
static char * floor_dirt_1_xpm[] = {
"48 48 4 1",
" 	c #211516",
".	c #522927",
"+	c #000000",
"@	c #703E27",
"  ......++      @@@@..      ++......    ....  ++",
"  ......++      @@@@..      ++......    ....  ++",
"++++  ..  ++++    ++++                  ++++++++",
"++++  ..  ++++    ++++                  ++++++++",
"@@..++++++  @@@@....  ++......    ++....@@@@..@@",
"@@..++++++  @@@@....  ++......    ++....@@@@..@@",
"@@    @@@@......@@@@..    ..    ++      ......  ",
"@@    @@@@......@@@@..    ..    ++      ......  ",
"    ................          @@@@....++  ....  ",
"    ................          @@@@....++  ....  ",
"  ....      ......  ++      ....@@@@@@..++++++  ",
"  ....      ......  ++      ....@@@@@@..++++++  ",
"++      ++++    ++++  ++  ..............@@    ++",
"++      ++++    ++++  ++  ..............@@    ++",
"..  @@@@......@@@@@@..        ..............  ++",
"..  @@@@......@@@@@@..        ..............  ++",
"  ....................                  ++++++  ",
"  ....................                  ++++++  ",
"++      ++    ......                            ",
"++      ++    ......                            ",
"      @@@@  ++++++++++++  ..@@@@@@....    ++  ..",
"      @@@@  ++++++++++++  ..@@@@@@....    ++  ..",
"..  ......@@@@....++++..@@@@........        ++++",
"..  ......@@@@....++++..@@@@........        ++++",
"..    ..@@@@........++  ......        ......  ..",
"..    ..@@@@........++  ......        ......  ..",
"        ....      ..          ++++    ....      ",
"        ....      ..          ++++    ....      ",
"              ++        ........@@..@@@@@@..  ++",
"              ++        ........@@..@@@@@@..  ++",
"++  ++++++  ++      ..............  ....@@@@..  ",
"++  ++++++  ++      ..............  ....@@@@..  ",
"  ++++..@@@@      ..........  ......      ......",
"  ++++..@@@@      ..........  ......      ......",
"  ++........@@          ++++..@@@@@@..@@..      ",
"  ++........@@          ++++..@@@@@@..@@..      ",
"      @@@@......      ++..............  ++++++  ",
"      @@@@......      ++..............  ++++++  ",
"++  @@@@........  ......        ++++++++      ++",
"++  @@@@........  ......        ++++++++      ++",
"....            ..  ..++  ..@@@@@@  ++  ........",
"....            ..  ..++  ..@@@@@@  ++  ........",
"..      ++++++    ++++++........@@@@....++++++..",
"..      ++++++    ++++++........@@@@....++++++..",
"++++++..........      ++++++    ..........@@  ..",
"++++++..........      ++++++    ..........@@  ..",
"..........  ++++++    ......  ++++............  ",
"..........  ++++++    ......  ++++............  "};
