/* XPM */
static char * charac_mid_left_xpm[] = {
"48 20 20 1",
" 	c #211516",
".	c #522927",
"+	c #000000",
"@	c #EC9E19",
"#	c #F1B983",
"$	c #FFFFFF",
"%	c #0C6FA6",
"&	c #FFBF1B",
"*	c #FFE51B",
"=	c #CD7916",
"-	c #FFDEA6",
";	c #703E27",
">	c #285C55",
",	c #CC4402",
"'	c #223630",
")	c #E36002",
"!	c #5C3B20",
"~	c #DB9451",
"{	c #B71C02",
"]	c #D6A503",
"  ......++   ++@@++####++$$@@%%&&****++ ....  ++",
"  ......++   ++@@++####++$$@@%%&&****++ ....  ++",
"++++  ..  +++@@==++----++$$==@@&&&&@@++ ++++++++",
"++++  ..  +++@@==++----++$$==@@&&&&@@++ ++++++++",
";;..++++++  ;++==##------##====@@@@++...;;;;..;;",
";;..++++++  ;++==##------##====@@@@++...;;;;..;;",
";;    ;;;;...++>>,,######,,,,>>==++     ......  ",
";;    ;;;;...++>>,,######,,,,>>==++     ......  ",
"    .......++>>''))>>>>>>)),,''''++...++  ....  ",
"    .......++>>''))>>>>>>)),,''''++...++  ....  ",
"  ....   ++>>''''))))''!!))))''''>>++;..++++++  ",
"  ....   ++>>''''))))''!!))))''''>>++;..++++++  ",
"++     ++####~~++{{)))))))),,++''''''++.;;    ++",
"++     ++####~~++{{)))))))),,++''''''++.;;    ++",
"..  ;;;++~~~~++++''{{{{{{{{''++++##--##++...  ++",
"..  ;;;++~~~~++++''{{{{{{{{''++++##--##++...  ++",
"  .......++++++,,{{==]]]]''{{{{++++----+++++++  ",
"  .......++++++,,{{==]]]]''{{{{++++----+++++++  ",
"++      ++ ++''{{{{{{{{{{{{{{{{++  ++++         ",
"++      ++ ++''{{{{{{{{{{{{{{{{++  ++++         "};
