/* XPM */
static char * exit_xpm[] = {
"48 48 32 1",
" 	c #DBC5A0",
".	c #DBC6A1",
"+	c #A4846F",
"@	c #DBC6A0",
"#	c #A3846F",
"$	c #CAB39A",
"%	c #CAB399",
"&	c #CAB299",
"*	c #A4856F",
"=	c #CBB39A",
"-	c #796152",
";	c #514138",
">	c #7A6252",
",	c #7A6152",
"'	c #524239",
")	c #7A6253",
"!	c #524139",
"~	c #524138",
"{	c #613F2A",
"]	c #603F29",
"^	c #613F29",
"/	c #61402A",
"(	c #44251E",
"_	c #44241E",
":	c #45251F",
"<	c #45251E",
"[	c #1E1717",
"}	c #1F1717",
"|	c #1E1716",
"1	c #000000",
"2	c #A48570",
"3	c #DAC5A0",
"    ..++  ..@@@@@@@@@@@@  ++@@@@@@@@@@##@@@@@@@@",
"    ..++  ..@@@@@@@@@@@@  ++@@@@@@@@@@##@@@@@@@@",
"$$%%$$++&&$$$$##**$$==&&$$++====$$&&++++%%%%$$==",
"$$%%$$++&&$$$$##**$$==&&$$++====$$&&++++%%%%$$==",
"==$$--;;>>,,--''''>>,,))>>!!))>>>>))!!~~--))%%$$",
"==$$--;;>>,,--''''>>,,))>>!!))>>>>))!!~~--))%%$$",
"$$=={{]]^^]]//]]]]]]]]//]]//]]]]{{]]//]]]]>>$$$$",
"$$=={{]]^^]]//]]]]]]]]//]]//]]]]{{]]//]]]]>>$$$$",
">>))]]]]((((((__]]]]^^//]]]]]]]]::((______))>>))",
">>))]]]]((((((__]]]]^^//]]]]]]]]::((______))>>))",
"  @@<<__((((____((__((((((__((__((::@@    ++@@  ",
"  @@<<__((((____((__((((((__((__((::@@    ++@@  ",
"%%$$(((((([[}}||}}}}[[((__((______((@@@@@@>>%%$$",
"%%$$(((((([[}}||}}}}[[((__((______((@@@@@@>>%%$$",
"$$$$}}}}((__((((}}}}[[____[[}}}}[[}}$$==%%))$$%%",
"$$$$}}}}((__((((}}}}[[____[[}}}}[[}}$$==%%))$$%%",
"$$##}}}}}}[[}}}}[[}}}}[[||}}11111111$$%%$$))$$%%",
"$$##}}}}}}[[}}}}[[}}}}[[||}}11111111$$%%$$))$$%%",
"@@@@}}}}11111111111111111111  @@  >>##22--))%%==",
"@@@@}}}}11111111111111111111  @@  >>##22--))%%==",
"$$%%111111111111111111111111$$$$$$))..@@  >>$$$$",
"$$%%111111111111111111111111$$$$$$))..@@  >>$$$$",
"$$$$}}}}||1111||}}1111111111$$$$==>>$$%%$$--==$$",
"$$$$}}}}||1111||}}1111111111$$$$==>>$$%%$$--==$$",
"-->>}}1111111111111111111111$$==&&--==$$$$>>%%==",
"-->>}}1111111111111111111111$$==&&--==$$$$>>%%==",
"@@..1111111111111111%%&&$$--++##))))%%@@  >>>>))",
"@@..1111111111111111%%&&$$--++##))))%%@@  >>>>))",
"$$$$1111[[1111111111$$&&))--$$$$$$>>    @@>>    ",
"$$$$1111[[1111111111$$&&))--$$$$$$>>    @@>>    ",
"$$$$[[}}[[1111111111++++**--%%%%$$))$$%%$$>>&&&&",
"$$$$[[}}[[1111111111++++**--%%%%$$))$$%%$$>>&&&&",
"$$$$1111111111111111####++>>$$%%++--$$$$$$>>$$$$",
"$$$$1111111111111111####++>>$$%%++--$$$$$$>>$$$$",
"))>>11111111##**++;;++##++>>++++--))++##))>>$$$$",
"))>>11111111##**++;;++##++>>++++--))++##))>>$$$$",
"@@++11111111++**>>''))>>>>>>$$$$==--%%%%$$))$$&&",
"@@++11111111++**>>''))>>>>>>$$$$==--%%%%$$))$$&&",
"    11111111))>>--;;$$%%$$--$$%%&&>>$$$$&&,,$$$$",
"    11111111))>>--;;$$%%$$--$$%%&&>>$$$$&&,,$$$$",
"$$==11111111>>>>--''++++++--%%&&$$--**##**))))))",
"$$==11111111>>>>--''++++++--%%&&$$--**##**))))))",
"%%$$@@  ##@@  ..  @@33++      33  ++@@@@@@@@    ",
"%%$$@@  ##@@  ..  @@33++      33  ++@@@@@@@@    ",
"$$==&&&&++$$$$++##==$$++$$$$$$%%==++$$$$$$====$$",
"$$==&&&&++$$$$++##==$$++$$$$$$%%==++$$$$$$====$$",
"---->>--''))>>!!;;))>>~~>>>>--))--''))>>))))>>))",
"---->>--''))>>!!;;))>>~~>>>>--))--''))>>))))>>))"};
