/* XPM */
static char * exit_charac_xpm[] = {
"48 48 39 1",
" 	c #DBC5A0",
".	c #DBC6A1",
"+	c #A4846F",
"@	c #DBC6A0",
"#	c #A3846F",
"$	c #CAB39A",
"%	c #CAB399",
"&	c #CAB299",
"*	c #A4856F",
"=	c #CBB39A",
"-	c #796152",
";	c #514138",
">	c #7A6252",
",	c #7A6152",
"'	c #524239",
")	c #7A6253",
"!	c #524139",
"~	c #524138",
"{	c #613F2A",
"]	c #603F29",
"^	c #613F29",
"/	c #61402A",
"(	c #44251E",
"_	c #44241E",
":	c #45251F",
"<	c #45251E",
"[	c #1E1717",
"}	c #1F1717",
"|	c #1E1716",
"1	c #000000",
"2	c #A48570",
"3	c #00A1BA",
"4	c #FFFFFF",
"5	c #FFBF1B",
"6	c #FFE51B",
"7	c #0C6FA6",
"8	c #EC9E19",
"9	c #E2A174",
"0	c #F1B983",
"    ..++  ..@@@@@@@@@@@@  ++@@@@@@@@@@##@@@@@@@@",
"    ..++  ..@@@@@@@@@@@@  ++@@@@@@@@@@##@@@@@@@@",
"$$%%$$++&&$$$$##**$$==&&$$++====$$&&++++%%%%$$==",
"$$%%$$++&&$$$$##**$$==&&$$++====$$&&++++%%%%$$==",
"==$$--;;>>,,--''''>>,,))>>!!))>>>>))!!~~--))%%$$",
"==$$--;;>>,,--''''>>,,))>>!!))>>>>))!!~~--))%%$$",
"$$=={{]]^^]]//]]]]]]]]//]]//]]]]{{]]//]]]]>>$$$$",
"$$=={{]]^^]]//]]]]]]]]//]]//]]]]{{]]//]]]]>>$$$$",
">>))]]]]((((((__]]]]^^//]]]]]]]]::((______))>>))",
">>))]]]]((((((__]]]]^^//]]]]]]]]::((______))>>))",
"  @@<<__((((____((__((((((__((__((::@@    ++@@  ",
"  @@<<__((((____((__((((((__((__((::@@    ++@@  ",
"%%$$(((((([[}}||}}}}[[((__((______((@@@@@@>>%%$$",
"%%$$(((((([[}}||}}}}[[((__((______((@@@@@@>>%%$$",
"$$$$}}}}((__((((}}}}[[____[[}}}}[[}}$$==%%))$$%%",
"$$$$}}}}((__((((}}}}[[____[[}}}}[[}}$$==%%))$$%%",
"$$##}}}}}}[[}}}}[[}}}}[[||}}11111111$$%%$$))$$%%",
"$$##}}}}}}[[}}}}[[}}}}[[||}}11111111$$%%$$))$$%%",
"@@@@}}}}11111111111111111111  @@  >>##22--))%%==",
"@@@@}}}}11111111111111111111  @@  >>##22--))%%==",
"$$%%111111111111111111111111$$$$$$))..@@  >>$$$$",
"$$%%111111111111111111111111$$$$$$))..@@  >>$$$$",
"$$$$}}}}||1111||}}1111111111$$$$==>>$$%%$$--==$$",
"$$$$}}}}||1111||}}1111111111$$$$==>>$$%%$$--==$$",
"-->>}}1111111111111111111111$$==&&--==$$$$>>%%==",
"-->>}}1111111111111111111111$$==&&--==$$$$>>%%==",
"@@..1111111111111111%%&&$$--++##))))%%@@  >>>>))",
"@@..1111111111111111%%&&$$--++##))))%%@@  >>>>))",
"$$$$1111[[1111111111$$&&))--$$$$$$>>    @@>>    ",
"$$$$1111[[1111111111$$&&))--$$$$$$>>    @@>>    ",
"$$$$[[}}[[1111111111++++**--%%%%$$))$$%%$$>>&&&&",
"$$$$[[}}[[1111111111++++**--%%%%$$))$$%%$$>>&&&&",
"$$$$1111111111111111####++>>$$%%++--$$$$$$>>$$$$",
"$$$$1111111111111111####++>>$$%%++--$$$$$$>>$$$$",
"))>>11111111##**++;;++##++>>++++--))++##))>>$$$$",
"))>>11111111##**++;;++##++>>++++--))++##))>>$$$$",
"@@++11111111++**>>'1111111111$$$==--%%%%$$))$$&&",
"@@++11111111++**>>'1111111111$$$==--%%%%$$))$$&&",
"    11111111))>>-1133334444331111&>>$$$$&&,,$$$$",
"    11111111))>>-1133334444331111&>>$$$$&&,,$$$$",
"$$==11111111>>>11333333556666666611-**##**))))))",
"$$==11111111>>>11333333556666666611-**##**))))))",
"%%$$@@  ##@@  .1133775566665555666611@@@@@@@    ",
"%%$$@@  ##@@  .1133775566665555666611@@@@@@@    ",
"$$==&&&&++$$$117777555555555555556611$$$$$====$$",
"$$==&&&&++$$$117777555555555555556611$$$$$====$$",
"---->>--'')11667777889900000099555511)>>))))>>))",
"---->>--'')11667777889900000099555511)>>))))>>))"};
