/* XPM */
static char * floor_dirt_1_half_xpm[] = {
"24 10 4 1",
" 	c #211516",
".	c #000000",
"+	c #522927",
"@	c #703E27",
"       .    ++++@+@@@+ .",
". ... .   +++++++ ++@@+ ",
" ..+@@   +++++ +++   +++",
" .++++@     ..+@@@+@+   ",
"   @@+++   .+++++++ ... ",
". @@++++ +++    ....   .",
"++      + +. +@@@ . ++++",
"+   ...  ...++++@@++...+",
"...+++++   ...  +++++@ +",
"+++++ ...  +++ ..++++++ "};
