/* XPM */
static char * wall_all_xpm[] = {
"24 38 6 1",
" 	c #673C24",
".	c #49221E",
"+	c #956A27",
"@	c #7A4E25",
"#	c #211617",
"$	c #000000",
"  .....   ..    ..   ...",
"++@@@@@@+++@@@@@@@@@@@@.",
"+++++@ @@@@@@@@@@@@++@@.",
"+@@++@ @@@++@@  ..##. ..",
"+@@. @   @@@@@.@@@@. @@.",
"@@@ +++@   ...#@@@++@@@ ",
"@@@ @@@       ..@@@@@@@ ",
"@@@@@@@@@++@ +@ ++@@ . .",
"+@@@@@@@     @@++++@#.  ",
"++++@@@@ @@@ @@@ @  #@@.",
"++@+@..  @       @@ .@@.",
"@@   .@@  ..@@@  @@    .",
"@@@...@@  @@@.  ..++++@.",
"@++@@@@@@@@@  @@@ +++@@ ",
"@++@     @@@ @@@@@  .@@ ",
"@  ..@@@ +++.@@@@@@@.@+.",
"@@ ... @@+++.++@+++@ @+.",
"@@@@ @@   ..# @@++@@@@+.",
"++@@@@@@@@@ ##..@@@@@  .",
"++   ++@@@@@..++@@@@@@  ",
"+  .   @@@    @@@@@++@@ ",
"  ..@@    .@@@@@#. ++@@.",
"@@@.@@@@.##+++++@@@@@@@ ",
"++@ +++@@.++@@++++@@+++.",
"..  ..   ...  ..... ...$",
"..   .  ..    .. ....  $",
"...#$$....$$##..   ..  $",
"    #$   .$#  ..#$$....$",
"....#$    ####.   $.  .$",
".#$$####..#$#$$$$#$$$$#$",
"$$$#..##...$###$##..#$#$",
"##....$$$$$$...$##...$#$",
"#####$$...$$..#$$$$$$$#$",
"#...#$#########$$$$##..$",
"$$$$$$$##..##.$$$$$$$$$$",
"$$##$$$$$$$$###$$$$###$$",
"$$###$$$##$$$$$$##$$##$$",
"$$$$$$$$##$$$$$$$$$$###$"};
