/* XPM */
static char * exit_charac_left_xpm[] = {
"48 48 39 1",
" 	c #DBC5A0",
".	c #DBC6A1",
"+	c #A4846F",
"@	c #DBC6A0",
"#	c #A3846F",
"$	c #CAB39A",
"%	c #CAB399",
"&	c #CAB299",
"*	c #A4856F",
"=	c #CBB39A",
"-	c #796152",
";	c #514138",
">	c #7A6252",
",	c #7A6152",
"'	c #524239",
")	c #7A6253",
"!	c #524139",
"~	c #524138",
"{	c #613F2A",
"]	c #603F29",
"^	c #613F29",
"/	c #61402A",
"(	c #44251E",
"_	c #44241E",
":	c #45251F",
"<	c #45251E",
"[	c #1E1717",
"}	c #1F1717",
"|	c #1E1716",
"1	c #000000",
"2	c #A48570",
"3	c #00A1BA",
"4	c #FFFFFF",
"5	c #FFE51B",
"6	c #FFBF1B",
"7	c #0C6FA6",
"8	c #E2A174",
"9	c #F1B983",
"0	c #EC9E19",
"    ..++  ..@@@@@@@@@@@@  ++@@@@@@@@@@##@@@@@@@@",
"    ..++  ..@@@@@@@@@@@@  ++@@@@@@@@@@##@@@@@@@@",
"$$%%$$++&&$$$$##**$$==&&$$++====$$&&++++%%%%$$==",
"$$%%$$++&&$$$$##**$$==&&$$++====$$&&++++%%%%$$==",
"==$$--;;>>,,--''''>>,,))>>!!))>>>>))!!~~--))%%$$",
"==$$--;;>>,,--''''>>,,))>>!!))>>>>))!!~~--))%%$$",
"$$=={{]]^^]]//]]]]]]]]//]]//]]]]{{]]//]]]]>>$$$$",
"$$=={{]]^^]]//]]]]]]]]//]]//]]]]{{]]//]]]]>>$$$$",
">>))]]]]((((((__]]]]^^//]]]]]]]]::((______))>>))",
">>))]]]]((((((__]]]]^^//]]]]]]]]::((______))>>))",
"  @@<<__((((____((__((((((__((__((::@@    ++@@  ",
"  @@<<__((((____((__((((((__((__((::@@    ++@@  ",
"%%$$(((((([[}}||}}}}[[((__((______((@@@@@@>>%%$$",
"%%$$(((((([[}}||}}}}[[((__((______((@@@@@@>>%%$$",
"$$$$}}}}((__((((}}}}[[____[[}}}}[[}}$$==%%))$$%%",
"$$$$}}}}((__((((}}}}[[____[[}}}}[[}}$$==%%))$$%%",
"$$##}}}}}}[[}}}}[[}}}}[[||}}11111111$$%%$$))$$%%",
"$$##}}}}}}[[}}}}[[}}}}[[||}}11111111$$%%$$))$$%%",
"@@@@}}}}11111111111111111111  @@  >>##22--))%%==",
"@@@@}}}}11111111111111111111  @@  >>##22--))%%==",
"$$%%111111111111111111111111$$$$$$))..@@  >>$$$$",
"$$%%111111111111111111111111$$$$$$))..@@  >>$$$$",
"$$$$}}}}||1111||}}1111111111$$$$==>>$$%%$$--==$$",
"$$$$}}}}||1111||}}1111111111$$$$==>>$$%%$$--==$$",
"-->>}}1111111111111111111111$$==&&--==$$$$>>%%==",
"-->>}}1111111111111111111111$$==&&--==$$$$>>%%==",
"@@..1111111111111111%%&&$$--++##))))%%@@  >>>>))",
"@@..1111111111111111%%&&$$--++##))))%%@@  >>>>))",
"$$$$1111[[1111111111$$&&))--$$$$$$>>    @@>>    ",
"$$$$1111[[1111111111$$&&))--$$$$$$>>    @@>>    ",
"$$$$[[}}[[1111111111++++**--%%%%$$))$$%%$$>>&&&&",
"$$$$[[}}[[1111111111++++**--%%%%$$))$$%%$$>>&&&&",
"$$$$1111111111111111####++>>$$%%++--$$$$$$>>$$$$",
"$$$$1111111111111111####++>>$$%%++--$$$$$$>>$$$$",
"))>>11111111##**++;;++##++>>++++--))++##))>>$$$$",
"))>>11111111##**++;;++##++>>++++--))++##))>>$$$$",
"@@++11111111++**>>'1111111111$$$==--%%%%$$))$$&&",
"@@++11111111++**>>'1111111111$$$==--%%%%$$))$$&&",
"    11111111))>1111334444333311%&&>>$$$$&&,,$$$$",
"    11111111))>1111334444333311%&&>>$$$$&&,,$$$$",
"$$==11111111>11555555556633333311$--**##**))))))",
"$$==11111111>11555555556633333311$--**##**))))))",
"%%$$@@  ##@1155556666555566773311 ++@@@@@@@@    ",
"%%$$@@  ##@1155556666555566773311 ++@@@@@@@@    ",
"$$==&&&&++$115566666666666666777711+$$$$$$====$$",
"$$==&&&&++$115566666666666666777711+$$$$$$====$$",
"---->>--'')11666688999999880077775511)>>))))>>))",
"---->>--'')11666688999999880077775511)>>))))>>))"};
