/* XPM */
static char * exit_lock_xpm[] = {
"48 48 54 1",
" 	c #DBC5A0",
".	c #DBC6A1",
"+	c #A4846F",
"@	c #DBC6A0",
"#	c #A3846F",
"$	c #CAB39A",
"%	c #CAB399",
"&	c #CAB299",
"*	c #A4856F",
"=	c #CBB39A",
"-	c #796152",
";	c #514138",
">	c #7A6252",
",	c #7A6152",
"'	c #524239",
")	c #7A6253",
"!	c #524139",
"~	c #524138",
"{	c #613F2A",
"]	c #603F29",
"^	c #613F29",
"/	c #61402A",
"(	c #44251E",
"_	c #44241E",
":	c #0F0504",
"<	c #190D06",
"[	c #000000",
"}	c #150A05",
"|	c #0C0403",
"1	c #45251F",
"2	c #45251E",
"3	c #C7C7C7",
"4	c #0A0302",
"5	c #1E1717",
"6	c #1F1717",
"7	c #1E1716",
"8	c #020101",
"9	c #090302",
"0	c #050201",
"a	c #010101",
"b	c #010000",
"c	c #C8C8C8",
"d	c #A48570",
"e	c #070503",
"f	c #030201",
"g	c #927663",
"h	c #937663",
"i	c #C9B298",
"j	c #6D5749",
"k	c #C9B299",
"l	c #7C6454",
"m	c #C6AF96",
"n	c #816959",
"o	c #DAC5A0",
"    ..++  ..@@@@@@@@@@@@  ++@@@@@@@@@@##@@@@@@@@",
"    ..++  ..@@@@@@@@@@@@  ++@@@@@@@@@@##@@@@@@@@",
"$$%%$$++&&$$$$##**$$==&&$$++====$$&&++++%%%%$$==",
"$$%%$$++&&$$$$##**$$==&&$$++====$$&&++++%%%%$$==",
"==$$--;;>>,,--''''>>,,))>>!!))>>>>))!!~~--))%%$$",
"==$$--;;>>,,--''''>>,,))>>!!))>>>>))!!~~--))%%$$",
"$$=={{]]^^]]//]]]]]]]]//]]//]]]]{{]]//]]]]>>$$$$",
"$$=={{]]^^]]//]]]]]]]]//]]//]]]]{{]]//]]]]>>$$$$",
">>))]]]]((((((_:<[[[[[[[[[[[[[[}|1((______))>>))",
">>))]]]]((((((_:<[[[[[[[[[[[[[[}|1((______))>>))",
"  @@22__((((___||3333333333333344(11@@    ++@@  ",
"  @@22__((((___||3333333333333344(11@@    ++@@  ",
"%%$$((((((556678833[[[[[[[[[[3399_((@@@@@@>>%%$$",
"%%$$((((((556678833[[[[[[[[[[3399_((@@@@@@>>%%$$",
"$$$$6666((__(((0a33[[[[[[[[[[3388566$$==%%))$$%%",
"$$$$6666((__(((0a33[[[[[[[[[[3388566$$==%%))$$%%",
"$$##66666655666bb33[[[[[[[[[[33[[[[[$$%%$$))$$%%",
"$$##66666655666bb33[[[[[[[[[[33[[[[[$$%%$$))$$%%",
"@@@@6666[[[[[[[[[cc[[[[[[[[[[cc[[[[>##dd--))%%==",
"@@@@6666[[[[[[[[[cc[[[[[[[[[[cc[[[[>##dd--))%%==",
"$$%%[[[[[[[[[[[333333333333333333[[)..@@  >>$$$$",
"$$%%[[[[[[[[[[[333333333333333333[[)..@@  >>$$$$",
"$$$$666677[[[[[333333333333333333[[>$$%%$$--==$$",
"$$$$666677[[[[[333333333333333333[[>$$%%$$--==$$",
"-->>66[[[[[[[[[cc333333333333cc33[e-==$$$$>>%%==",
"-->>66[[[[[[[[[cc333333333333cc33[e-==$$$$>>%%==",
"@@..[[[[[[[[[[[333333[[[[[[333333[f)%%@@  >>>>))",
"@@..[[[[[[[[[[[333333[[[[[[333333ff)%%@@  >>>>))",
"$$$$[[[[55[[[[[33333333[[33333333[[>    @@>>    ",
"$$$$[[[[55[[[[[33333333[[33333333[[>    @@>>    ",
"$$$$556655[[[[[333333[[[[[[cc3333[[)$$%%$$>>&&&&",
"$$$$556655[[[[[333333[[[[[[cc3333[[)$$%%$$>>&&&&",
"$$$$[[[[[[[[[[[333333[[[[[[333333[[-$$$$$$>>$$$$",
"$$$$[[[[[[[[[[[333333[[[[[[333333[[-$$$$$$>>$$$$",
"))>>[[[[[[[[g[[33333333cc33333333[[)#+##))>>$$$$",
"))>>[[[[[[[[g[[33333333cc33333333[[)#+##))>>$$$$",
"@@++[[[[[[[[h[[cc3333cc3333333333[[-i%%%$$))$$&&",
"@@++[[[[[[[[h[[cc3333cc3333333333[[-i%%%$$))$$&&",
"    [[[[[[[[j[[[[[[[[[[[[[[[[[[[[[[>k$$$&&,,$$$$",
"    [[[[[[[[j[[[[[[[[[[[[[[[[[[[[[[>k$$$&&,,$$$$",
"$$==[[[[[[[[>>>>--''++++++l-m%&&$$n-**##**))))))",
"$$==[[[[[[[[>>>>--''++++++l-m%&&$$n-**##**))))))",
"%%$$@@  ##@@  ..  @@oo++      oo  ++@@@@@@@@    ",
"%%$$@@  ##@@  ..  @@oo++      oo  ++@@@@@@@@    ",
"$$==&&&&++$$$$++##==$$++$$$$$$%%==++$$$$$$====$$",
"$$==&&&&++$$$$++##==$$++$$$$$$%%==++$$$$$$====$$",
"---->>--''))>>!!;;))>>~~>>>>--))--''))>>))))>>))",
"---->>--''))>>!!;;))>>~~>>>>--))--''))>>))))>>))"};
