/* XPM */
static char * lock_half_xpm[] = {
"48 20 32 1",
" 	c #DBC6A0",
".	c #DBC5A0",
"+	c #DBC6A1",
"@	c #A4846F",
"#	c #A3846F",
"$	c #DAC5A0",
"%	c #CAB39A",
"&	c #CBB39A",
"*	c #CAB399",
"=	c #CAB299",
"-	c #7A6253",
";	c #524139",
">	c #7A6252",
",	c #796152",
"'	c #524239",
")	c #603F29",
"!	c #61402A",
"~	c #613F2A",
"{	c #613F29",
"]	c #44241E",
"^	c #45251F",
"/	c #000000",
"(	c #44251E",
"_	c #C7C7C7",
":	c #45251E",
"<	c #1F1717",
"[	c #1E1717",
"}	c #7A6152",
"|	c #1E1616",
"1	c #1E1716",
"2	c #C8C8C8",
"3	c #A48570",
"  ..++@@....      ..  ..  ##..  ..$$  @@..      ",
"  ..++@@....      ..  ..  ##..  ..$$  @@..      ",
"%%%%%%@@%%&&**@@##%%&&%%%%##**%%****@@@@==**&&%%",
"%%%%%%@@%%&&**@@##%%&&%%%%##**%%****@@@@==**&&%%",
"&&%%--;;-->>,,'';;,,,,,,>>;;>>>>>>--''''>>>>%%%%",
"&&%%--;;-->>,,'';;,,,,,,>>;;>>>>>>--''''>>>>%%%%",
"%%%%))))!!))))))))))))))~~!!)))){{))))))))>>**%%",
"%%%%))))!!))))))))))))))~~!!)))){{))))))))>>**%%",
"-->>))))]]^^]]//////////////////((((((]]((>>-->>",
"-->>))))]]^^]]//////////////////((((((]]((>>-->>",
"..  ((]]^^((]]//______________//]]]]  ..$$##  ++",
"..  ((]]^^((]]//______________//]]]]  ..$$##  ++",
"%%&&]]::((<<[[//__//////////__//]]((  ..  }}&&%%",
"%%&&]]::((<<[[//__//////////__//]]((  ..  }}&&%%",
"&&%%||<<]]]]((//__//////////__//<<<<%%%%&&--&&%%",
"&&%%||<<]]]]((//__//////////__//<<<<%%%%&&--&&%%",
"%%##<<<<<<1111//__//////////__//////%%&&&&--&&&&",
"%%##<<<<<<1111//__//////////__//////%%&&&&--&&&&",
"..  [[<<////////22//////////22////>>33@@--,,%%%%",
"..  [[<<////////22//////////22////>>33@@--,,%%%%"};
