/* XPM */
static char * Floors_xpm[] = {
"26 26 5 1",
" 	c None",
".	c #211516",
"+	c #522927",
"@	c #000000",
"#	c #703E27",
" .+++@...##+...@+++..++.@ ",
"..+++@...##+...@+++..++.@@",
"@@@.+.@@..@@.........@@@@@",
"##+@@@.##++.@+++..@++##+##",
"##..##+++##+..+..@...+++..",
"...++++++++.....##++@.++..",
"..++...+++.@...++###+@@@..",
"@@...@@..@@.@.+++++++#..@@",
"++.##+++###+....+++++++.@@",
"..++++++++++.........@@@..",
"@@...@..+++...............",
"....##.@@@@@@.+###++..@.++",
"++.+++##++@@+##++++....@@@",
"++..+##++++@.+++....+++.++",
".....++...+.....@@..++....",
"........@....++++#+###+.@@",
"@@.@@@.@...+++++++.++##+..",
"..@@+##...+++++.+++...++++",
"..@++++#.....@@+###+#+....",
"....##+++...@+++++++.@@@..",
"@@.##++++.+++....@@@@...@@",
"+++......+.+@.+###.@.+++++",
"++...@@@..@@@++++##++@@@++",
"@@@@+++++...@@@..+++++#.++",
"++++++.@@@..+++.@@++++++..",
" +++++.@@@..+++.@@++++++. "};
