/* XPM */
static char * gold_xpm[] = {
"24 24 14 1",
" 	c #211516",
".	c #522927",
"+	c #000000",
"@	c #703E27",
"#	c #331716",
"$	c #120A0A",
"%	c #DDDDDD",
"&	c #FFE51B",
"*	c #FFBD13",
"=	c #F89313",
"-	c #FF7A6E",
";	c #E3DFDE",
">	c #472516",
",	c #EC5906",
" ...+   @@.   +...  .. +",
"++ . ++  ++         ++++",
"@.+++ @@.. +...  +..@@.@",
"@  @@...@@.  .  +   ... ",
"  ........     @@..+ .. ",
" ..   ..#$+   ..@@@.+++ ",
"+   ++ $%%&+$#......@  +",
". @@..#**&&$%%$....... +",
" .....#=****%%*$    +++ ",
"+   + $***==*-**$       ",
"   @@$*****=**&;;#.  + .",
". ..#==*&====&&***$   ++",
".  .>>==&*%%=**===$#.. .",
"   $**$,,*==,,,,,$**#   ",
"   $==$,,==,,,##>#,=>. +",
"+ +++$+$$,,,#**#.$,,>@. ",
" ++.@@  $####==#..$$ ...",
" +....@     ++#@@@.@.   ",
"   @@...   +....... +++ ",
"+ @@.... ...    ++++   +",
"..      . .+ .@@@ + ....",
".   +++  +++....@@..+++.",
"+++.....   +++  .....@ .",
"..... +++  ... ++...... "};
