/* XPM */
static char * wall_xpm[] = {
"24 48 6 1",
" 	c #49221E",
".	c #673C24",
"+	c #956A27",
"@	c #7A4E25",
"#	c #211617",
"$	c #000000",
" ..     ... ....  ...   ",
" ++@@@@@@+++@@@@@@@@@@@ ",
".+++++@.@@@@@@@@@@@++@@ ",
".+@@++@.@@@+@@..  ## .  ",
".+@@ .@...@@@@ @@@@ .@@ ",
" @@@.+++@...  #@@@++@@@.",
".@@@.@@@......  @@@@@@@.",
" @@@@@@@@@++.+@.++@@. . ",
" +@@@@@@@....@@++++@# ..",
" ++++@@@@.@@.@@@.@..#@@ ",
".++@+@  ..@......@@. @@ ",
".@@... @@.. @@@..@@.... ",
" @@@   @@..@@ ..  ++++@ ",
" @++@@@@@@@@..@@@.+++@@.",
".@++@.....@@.@@@@@.. @@.",
".@..  @@@.++ @@@@@@@ @+ ",
" @@.   .@@++ ++@+++@.@+ ",
" @@@@.@@... #.@@++@@@@+ ",
".++@@@@@@@@@##  @@@@@.. ",
".++...++@@@@  ++@@@@@@..",
".+.. ...@@@...@@@@@++@@.",
" ..  @@.... @@@@# .++@@ ",
".@@@ @@@@ ##++++@@@@@@@.",
" ++@.+++@@ +@@++++@@+++ ",
"$  ..  ...  ..     .   $",
"$  ..  ...  ..     .   $",
"$  ... ..  ...  .    ..$",
"$  ... ..  ...  .    ..$",
"$   #$$    $##  ...  ..$",
"$   #$$    $##  ...  ..$",
"$....#$... $..  #$$    $",
"$....#$... $..  #$$    $",
"$    #$....### ...$ .. $",
"$ #$$####  ##$$$$#$$$$#$",
"$ #$$####  ##$$$$#$$$$#$",
"$$$$#  ##   ###$##  #$#$",
"$##    $$$$$   $##   $#$",
"$##    $$$$$   $##   $#$",
"$#####$$   $  #$$$$$$$#$",
"$#   #$########$$$$##  $",
"$$$$$$$$##  # $$$$$$$$$$",
"$$$$$$$$##  # $$$$$$$$$$",
"$$$##$$$$$$$###$$$$###$$",
"$$$###$$$##$$$$$##$$##$$",
"$$$###$$$##$$$$$##$$##$$",
"$$$$$$$$$##$$$$$$$$$###$",
"$$$$$$$$$##$$$$$$$$$###$",
"$$$$$$$$$$$$$$$$$$$$$$$$"};
