/* XPM */
static char * charac_bot_xpm[] = {
"48 20 16 1",
" 	c #211516",
".	c #522927",
"+	c #000000",
"@	c #223630",
"#	c #CC4402",
"$	c #E36002",
"%	c #B71C02",
"&	c #DB9451",
"*	c #F1B983",
"=	c #FFDEA6",
"-	c #703E27",
";	c #D6A503",
">	c #CD7916",
",	c #341B03",
"'	c #4F2E02",
")	c #805503",
"  ......+++@@@@@@++##$$$$$$$$%%++&&****++...  ++",
"  ......+++@@@@@@++##$$$$$$$$%%++&&****++...  ++",
"++++  .++**==**++++@@%%%%%%%%@@++++&&&&+++++++++",
"++++  .++**==**++++@@%%%%%%%%@@++++&&&&+++++++++",
"--..+++++====++++%%%%@@;;;;>>%%##++++++.----..--",
"--..+++++====++++%%%%@@;;;;>>%%##++++++.----..--",
"--    ---++++..++%%%%%%%%%%%%%%%%@@++   ......  ",
"--    ---++++..++%%%%%%%%%%%%%%%%@@++   ......  ",
"    ...........++@@%%%%%%%%%%%%@@++...++  ....  ",
"    ...........++@@%%%%%%%%%%%%@@++...++  ....  ",
"  ....      ...++@@@@@@++++++,,,,++---..++++++  ",
"  ....      ...++@@@@@@++++++,,,,++---..++++++  ",
"++      ++++ ++''''''+++  ...++,,''++...--    ++",
"++      ++++ ++''''''+++  ...++,,''++...--    ++",
"..  ----.....++))))++.        .++++++.......  ++",
"..  ----.....++))))++.        .++++++.......  ++",
"  ...........++++++++.                  ++++++  ",
"  ...........++++++++.                  ++++++  ",
"++      ++    ......                            ",
"++      ++    ......                            "};
