/* XPM */
static char * head_floor_xpm[] = {
"48 48 12 1",
" 	c #211516",
".	c #522927",
"+	c #000000",
"@	c #703E27",
"#	c #00A1BA",
"$	c #FFFFFF",
"%	c #FFBF1B",
"&	c #FFE51B",
"*	c #0C6FA6",
"=	c #EC9E19",
"-	c #E2A174",
";	c #F1B983",
"  ......++      @@@@..      ++......    ....  ++",
"  ......++      @@@@..      ++......    ....  ++",
"++++  ..  ++++    ++++                  ++++++++",
"++++  ..  ++++    ++++                  ++++++++",
"@@..++++++  @@@@....  ++......    ++....@@@@..@@",
"@@..++++++  @@@@....  ++......    ++....@@@@..@@",
"@@    @@@@......@@@@..    ..    ++      ......  ",
"@@    @@@@......@@@@..    ..    ++      ......  ",
"    ................          @@@@....++  ....  ",
"    ................          @@@@....++  ....  ",
"  ....      ......  ++      ....@@@@@@..++++++  ",
"  ....      ......  ++      ....@@@@@@..++++++  ",
"++      ++++    ++++  ++  ..............@@    ++",
"++      ++++    ++++  ++  ..............@@    ++",
"..  @@@@......@@@@@@..        ..............  ++",
"..  @@@@......@@@@@@..        ..............  ++",
"  ....................                  ++++++  ",
"  ....................                  ++++++  ",
"++      ++    ......                            ",
"++      ++    ......                            ",
"      @@@@  ++++++++++++  ..@@@@@@....    ++  ..",
"      @@@@  ++++++++++++  ..@@@@@@....    ++  ..",
"..  ......@@@@....++++..@@@@........        ++++",
"..  ......@@@@....++++..@@@@........        ++++",
"..    ..@@@@........++  ......        ......  ..",
"..    ..@@@@........++  ......        ......  ..",
"        ....      ..          ++++    ....      ",
"        ....      ..          ++++    ....      ",
"              ++        ........@@..@@@@@@..  ++",
"              ++        ........@@..@@@@@@..  ++",
"++  ++++++  ++      ..............  ....@@@@..  ",
"++  ++++++  ++      ..............  ....@@@@..  ",
"  ++++..@@@@      ..........  ......      ......",
"  ++++..@@@@      ..........  ......      ......",
"  ++........@@          ++++..@@@@@@..@@..      ",
"  ++........@@          ++++..@@@@@@..@@..      ",
"      @@@@......   ++++++++++.........  ++++++  ",
"      @@@@......   ++++++++++.........  ++++++  ",
"++  @@@@........ ++####$$$$##+++++++++++      ++",
"++  @@@@........ ++####$$$$##+++++++++++      ++",
"....           ++######%%&&&&&&&&++ ++  ........",
"....           ++######%%&&&&&&&&++ ++  ........",
"..      ++++++ ++##**%%&&&&%%%%&&&&++...++++++..",
"..      ++++++ ++##**%%&&&&%%%%&&&&++...++++++..",
"++++++.......++****%%%%%%%%%%%%%%&&++.....@@  ..",
"++++++.......++****%%%%%%%%%%%%%%&&++.....@@  ..",
".......... ++&&****==--;;;;;;--%%%%++.........  ",
".......... ++&&****==--;;;;;;--%%%%++.........  "};
