/* XPM */
static char * charac_floor_left_xpm[] = {
"48 48 26 1",
" 	c #211516",
".	c #522927",
"+	c #000000",
"@	c #EC9E19",
"#	c #F1B983",
"$	c #FFFFFF",
"%	c #0C6FA6",
"&	c #FFBF1B",
"*	c #FFE51B",
"=	c #CD7916",
"-	c #FFDEA6",
";	c #703E27",
">	c #285C55",
",	c #CC4402",
"'	c #223630",
")	c #E36002",
"!	c #5C3B20",
"~	c #DB9451",
"{	c #B71C02",
"]	c #D6A503",
"^	c #3E2012",
"/	c #2C1312",
"(	c #341B03",
"_	c #0F0708",
":	c #4F2E02",
"<	c #805503",
"  ......++   ++@@++####++$$@@%%&&****++ ....  ++",
"  ......++   ++@@++####++$$@@%%&&****++ ....  ++",
"++++  ..  +++@@==++----++$$==@@&&&&@@++ ++++++++",
"++++  ..  +++@@==++----++$$==@@&&&&@@++ ++++++++",
";;..++++++  ;++==##------##====@@@@++...;;;;..;;",
";;..++++++  ;++==##------##====@@@@++...;;;;..;;",
";;    ;;;;...++>>,,######,,,,>>==++     ......  ",
";;    ;;;;...++>>,,######,,,,>>==++     ......  ",
"    .......++>>''))>>>>>>)),,''''++...++  ....  ",
"    .......++>>''))>>>>>>)),,''''++...++  ....  ",
"  ....   ++>>''''))))''!!))))''''>>++;..++++++  ",
"  ....   ++>>''''))))''!!))))''''>>++;..++++++  ",
"++     ++####~~++{{)))))))),,++''''''++.;;    ++",
"++     ++####~~++{{)))))))),,++''''''++.;;    ++",
"..  ;;;++~~~~++++''{{{{{{{{''++++##--##++...  ++",
"..  ;;;++~~~~++++''{{{{{{{{''++++##--##++...  ++",
"  .......++++++,,{{==]]]]''{{{{++++----+++++++  ",
"  .......++++++,,{{==]]]]''{{{{++++----+++++++  ",
"++      ++ ++''{{{{{{{{{{{{{{{{++  ++++         ",
"++      ++ ++''{{{{{{{{{{{{{{{{++  ++++         ",
"      ;;;;  +++''{{{{{{{{{{{{''++;....    ++  ..",
"      ;;;;  +++''{{{{{{{{{{{{''++^/...    ++  ..",
"..  ......^^^++((((++++++''''''++///_       ++++",
"..  ....//^^^++((((++++++''''''++///___     ++++",
"..    ./^^^++::((++/++__/++::::::++___//....  ..",
"..    ./^^^++::((++/++__/++::::::++___//....  ..",
"       _///++++++_//_______++<<<<++___//..      ",
"       _///++++++_//_______++<<<<++___//..      ",
"       _______++________///++++++++/^^^^;;..  ++",
"        ______++________///++++++++/^^^;;;..  ++",
"++  ++++++__++______//////////////__/...;;;;..  ",
"++  ++++++  ++______//////////////_ ....;;;;..  ",
"  ++++..;;;;    __//////////__/.....      ......",
"  ++++..;;;;      ..........  ......      ......",
"  ++........;;          ++++..;;;;;;..;;..      ",
"  ++........;;          ++++..;;;;;;..;;..      ",
"      ;;;;......      ++..............  ++++++  ",
"      ;;;;......      ++..............  ++++++  ",
"++  ;;;;........  ......        ++++++++      ++",
"++  ;;;;........  ......        ++++++++      ++",
"....            ..  ..++  ..;;;;;;  ++  ........",
"....            ..  ..++  ..;;;;;;  ++  ........",
"..      ++++++    ++++++........;;;;....++++++..",
"..      ++++++    ++++++........;;;;....++++++..",
"++++++..........      ++++++    ..........;;  ..",
"++++++..........      ++++++    ..........;;  ..",
"..........  ++++++    ......  ++++............  ",
"..........  ++++++    ......  ++++............  "};
