/* XPM */
static char * charact_top_wall_left_xpm[] = {
"48 76 14 1",
" 	c #673C24",
".	c #49221E",
"+	c #956A27",
"@	c #7A4E25",
"#	c #211617",
"$	c #000000",
"%	c #00A1BA",
"&	c #FFFFFF",
"*	c #FFE51B",
"=	c #FFBF1B",
"-	c #0C6FA6",
";	c #E2A174",
">	c #F1B983",
",	c #EC9E19",
"    ..........      ....        ....      ......",
"    ..........      ....        ....      ......",
"++++@@@@@@@@@@@@++++++@@@@@@@@@@@@@@@@@@@@@@@@..",
"++++@@@@@@@@@@@@++++++@@@@@@@@@@@@@@@@@@@@@@@@..",
"++++++++++@@  @@@@@@@@@@@@@@@@@@@@@@@@++++@@@@..",
"++++++++++@@  @@@@@@@@@@@@@@@@@@@@@@@@++++@@@@..",
"++@@@@++++@@  @@@@@@++++@@@@    ....####..  ....",
"++@@@@++++@@  @@@@@@++++@@@@    ....####..  ....",
"++@@@@..  @@      @@@@@@@@@@..@@@@@@@@..  @@@@..",
"++@@@@..  @@      @@@@@@@@@@..@@@@@@@@..  @@@@..",
"@@@@@@  ++++++@@      ......##@@@@@@++++@@@@@@  ",
"@@@@@@  ++++++@@      ......##@@@@@@++++@@@@@@  ",
"@@@@@@  @@@@@@              ....@@@@@@@@@@@@@@  ",
"@@@@@@  @@@@@@              ....@@@@@@@@@@@@@@  ",
"@@@@@@@@@@@@@@@@@@++++@@  ++@@  ++++@@@@  ..  ..",
"@@@@@@@@@@@@@@@@@@++++@@  ++@@  ++++@@@@  ..  ..",
"++@@@@@@@@@@@@@@          @@@@++++++++@@##..    ",
"++@@@@@@@@@@@@@@          @@@@++++++++@@##..    ",
"++++++++@@@@@@@@  @@@@@@  @@@@@@  @@    ##@@@@..",
"++++++++@@@@@@@@  @@@@@@  @@@@@@  @@    ##@@@@..",
"++++@@++@@....    @@              @@@@  ..@@@@..",
"++++@@++@@....    @@              @@@@  ..@@@@..",
"@@@@      ..@@@@    ....@@@@@@    @@@@        ..",
"@@@@      ..@@@@    ....@@@@@@    @@@@        ..",
"@@@@@@......@@@@    @@@@@@..    ....++++++++@@..",
"@@@@@@......@@@@    @@@@@@..    ....++++++++@@..",
"@@++++@@@@@@@@@@@@@@@@@@    @@@@@@  ++++++@@@@  ",
"@@++++@@@@@@@@@@@@@@@@@@    @@@@@@  ++++++@@@@  ",
"@@++++@@          @@@@@@  @@@@@@@@@@    ..@@@@  ",
"@@++++@@          @@@@@@  @@@@@@@@@@    ..@@@@  ",
"@@    ....@@@@@@  ++++++..@@@@@@@@@@@@@@..@@++..",
"@@    ....@@@@@@  ++++++..@@@@@@@@@@@@@@..@@++..",
"@@@@  ......  @@@@++++++..++++@@++++++@@  @@++..",
"@@@@  ......  @@@@++++++..++++@@++++++@@  @@++..",
"@@@@@@@@  @@@@      ....##  @@@@++++@@@@@@@@++..",
"@@@@@@@@  @@@@      ....##  @@@@++++@@@@@@@@++..",
"++++@@@@@@@@@@@@@@@@@@  ####....@@@@@@@@@@    ..",
"++++@@@@@@@@@@@@@@@@@@  ####....@@@@@@@@@@    ..",
"++++      ++++@@@@@@@@@@....++++@@@@@@@@@@@@    ",
"++++      ++++@@@@@@@@@@....++++@@@@@@@@@@@@    ",
"++    ..      @@@@@@        @@@@@@@@@@++++@@@@  ",
"++    ..      @@@@@@        @@@@@@@@@@++++@@@@  ",
"    ....@@@@        ..@@@@@@@@@@##..  ++++@@@@..",
"    ....@@@@        ..@@@@@@@@@@##..  ++++@@@@..",
"@@@@@@..@@@@@@@@..####++++++++++@@@@@@@@@@@@@@  ",
"@@@@@@..@@@@@@@@..####++++++++++@@@@@@@@@@@@@@  ",
"++++@@  ++++++@@@@..++++@@@@++++++++@@@@++++++..",
"++++@@  ++++++@@@@..++++@@@@++++++++@@@@++++++..",
"....    ....      ......    ..........  ......$$",
"....    ....      ......    ..........  ......$$",
"....      ..    ....        ....  ........    $$",
"....      ..    ....        ....  ........    $$",
"......##$$$$........$$$$####....      ....    $$",
"......##$$$$........$$$$####....      ....    $$",
"        ##$$      ..$$##    ....##$$$$........$$",
"        ##$$      ..$$##    ....##$$$$........$$",
"........##$$        ########..      $$..    ..$$",
"........##$$        ########..      $$..    ..$$",
"..##$$$$########....##$$##$$$$$$$$##$$$$$$$$##$$",
"..##$$$$########....##$$##$$$$$$$$##$$$$$$$$##$$",
"$$$$$$##....####......$$######$$####....##$$##$$",
"$$$$$$##....####......$$######$$####....##$$##$$",
"####........$$$$$$$$$$$$......$$####......$$##$$",
"####........$$$$$$$$$$$$......$$####......$$##$$",
"##########$$$$.....$$$$$$$$$$#$$$$$$$$$$$$$$##$$",
"##########$$$$.....$$$$$$$$$$#$$$$$$$$$$$$$$##$$",
"##......##$$###$$$$%%&&&&%%%%$$$$$$$$$####....$$",
"##......##$$###$$$$%%&&&&%%%%$$$$$$$$$####....$$",
"$$$$$$$$$$$$$$$********==%%%%%%$$$$$$$$$$$$$$$$$",
"$$$$$$$$$$$$$$$********==%%%%%%$$$$$$$$$$$$$$$$$",
"$$$$####$$$$$****====****==--%%$$$$$$$######$$$$",
"$$$$####$$$$$****====****==--%%$$$$$$$######$$$$",
"$$$$######$$$**==============----$$#$$$$####$$$$",
"$$$$######$$$**==============----$$#$$$$####$$$$",
"$$$$$$$$$$$$$====;;>>>>>>;;,,----**$$$$$######$$",
"$$$$$$$$$$$$$====;;>>>>>>;;,,----**$$$$$######$$"};
