/* XPM */
static char * wall_top_xpm[] = {
"48 48 5 1",
" 	c #673C24",
".	c #49221E",
"+	c #956A27",
"@	c #7A4E25",
"#	c #211617",
"    ..........      ....        ....      ......",
"    ..........      ....        ....      ......",
"++++@@@@@@@@@@@@++++++@@@@@@@@@@@@@@@@@@@@@@@@..",
"++++@@@@@@@@@@@@++++++@@@@@@@@@@@@@@@@@@@@@@@@..",
"++++++++++@@  @@@@@@@@@@@@@@@@@@@@@@@@++++@@@@..",
"++++++++++@@  @@@@@@@@@@@@@@@@@@@@@@@@++++@@@@..",
"++@@@@++++@@  @@@@@@++++@@@@    ....####..  ....",
"++@@@@++++@@  @@@@@@++++@@@@    ....####..  ....",
"++@@@@..  @@      @@@@@@@@@@..@@@@@@@@..  @@@@..",
"++@@@@..  @@      @@@@@@@@@@..@@@@@@@@..  @@@@..",
"@@@@@@  ++++++@@      ......##@@@@@@++++@@@@@@  ",
"@@@@@@  ++++++@@      ......##@@@@@@++++@@@@@@  ",
"@@@@@@  @@@@@@              ....@@@@@@@@@@@@@@  ",
"@@@@@@  @@@@@@              ....@@@@@@@@@@@@@@  ",
"@@@@@@@@@@@@@@@@@@++++@@  ++@@  ++++@@@@  ..  ..",
"@@@@@@@@@@@@@@@@@@++++@@  ++@@  ++++@@@@  ..  ..",
"++@@@@@@@@@@@@@@          @@@@++++++++@@##..    ",
"++@@@@@@@@@@@@@@          @@@@++++++++@@##..    ",
"++++++++@@@@@@@@  @@@@@@  @@@@@@  @@    ##@@@@..",
"++++++++@@@@@@@@  @@@@@@  @@@@@@  @@    ##@@@@..",
"++++@@++@@....    @@              @@@@  ..@@@@..",
"++++@@++@@....    @@              @@@@  ..@@@@..",
"@@@@      ..@@@@    ....@@@@@@    @@@@        ..",
"@@@@      ..@@@@    ....@@@@@@    @@@@        ..",
"@@@@@@......@@@@    @@@@@@..    ....++++++++@@..",
"@@@@@@......@@@@    @@@@@@..    ....++++++++@@..",
"@@++++@@@@@@@@@@@@@@@@@@    @@@@@@  ++++++@@@@  ",
"@@++++@@@@@@@@@@@@@@@@@@    @@@@@@  ++++++@@@@  ",
"@@++++@@          @@@@@@  @@@@@@@@@@    ..@@@@  ",
"@@++++@@          @@@@@@  @@@@@@@@@@    ..@@@@  ",
"@@    ....@@@@@@  ++++++..@@@@@@@@@@@@@@..@@++..",
"@@    ....@@@@@@  ++++++..@@@@@@@@@@@@@@..@@++..",
"@@@@  ......  @@@@++++++..++++@@++++++@@  @@++..",
"@@@@  ......  @@@@++++++..++++@@++++++@@  @@++..",
"@@@@@@@@  @@@@      ....##  @@@@++++@@@@@@@@++..",
"@@@@@@@@  @@@@      ....##  @@@@++++@@@@@@@@++..",
"++++@@@@@@@@@@@@@@@@@@  ####....@@@@@@@@@@    ..",
"++++@@@@@@@@@@@@@@@@@@  ####....@@@@@@@@@@    ..",
"++++      ++++@@@@@@@@@@....++++@@@@@@@@@@@@    ",
"++++      ++++@@@@@@@@@@....++++@@@@@@@@@@@@    ",
"++    ..      @@@@@@        @@@@@@@@@@++++@@@@  ",
"++    ..      @@@@@@        @@@@@@@@@@++++@@@@  ",
"    ....@@@@        ..@@@@@@@@@@##..  ++++@@@@..",
"    ....@@@@        ..@@@@@@@@@@##..  ++++@@@@..",
"@@@@@@..@@@@@@@@..####++++++++++@@@@@@@@@@@@@@  ",
"@@@@@@..@@@@@@@@..####++++++++++@@@@@@@@@@@@@@  ",
"++++@@  ++++++@@@@..++++@@@@++++++++@@@@++++++..",
"++++@@  ++++++@@@@..++++@@@@++++++++@@@@++++++.."};
